<svg width="41" height="39" viewBox="0 0 41 39" fill="none" xmlns="http://www.w3.org/2000/svg">
<path d="M20.6848 22.3849C24.2344 22.3849 27.1119 19.4004 27.1119 15.7188C27.1119 12.0372 24.2344 9.05273 20.6848 9.05273C17.1353 9.05273 14.2578 12.0372 14.2578 15.7188C14.2578 19.4004 17.1353 22.3849 20.6848 22.3849Z" stroke="white" stroke-width="2" stroke-linecap="round" stroke-linejoin="round"/>
<path d="M9.70703 32.7845C10.8542 30.8314 12.4666 29.2172 14.389 28.0971C16.3115 26.977 18.4794 26.3887 20.6844 26.3887C22.8894 26.3887 25.0573 26.977 26.9798 28.0971C28.9022 29.2172 30.5146 30.8314 31.6618 32.7845" stroke="white" stroke-width="2" stroke-linecap="round" stroke-linejoin="round"/>
<path d="M20.6849 37.0503C29.9137 37.0503 37.3951 29.2906 37.3951 19.7185C37.3951 10.1464 29.9137 2.38672 20.6849 2.38672C11.456 2.38672 3.97461 10.1464 3.97461 19.7185C3.97461 29.2906 11.456 37.0503 20.6849 37.0503Z" stroke="white" stroke-width="2" stroke-linecap="round" stroke-linejoin="round"/>
</svg>
