<svg width="20" height="19" viewBox="0 0 20 19" fill="none" xmlns="http://www.w3.org/2000/svg">
<path d="M10.5294 1.42487L12.6975 5.7813C12.7469 5.89187 12.8244 5.98765 12.9225 6.05909C13.0206 6.13053 13.1358 6.17513 13.2566 6.18844L18.043 6.89416C18.1816 6.91189 18.3122 6.96849 18.4197 7.05736C18.5272 7.14623 18.607 7.2637 18.6499 7.39605C18.6928 7.52839 18.697 7.67015 18.662 7.80477C18.6269 7.93939 18.5541 8.06132 18.4521 8.1563L15.0021 11.5627C14.914 11.6446 14.848 11.7471 14.8099 11.8609C14.7717 11.9746 14.7628 12.0961 14.7839 12.2142L15.6157 17.0049C15.6398 17.1425 15.6246 17.2842 15.5718 17.4136C15.519 17.5431 15.4307 17.6552 15.3171 17.7372C15.2034 17.8192 15.0689 17.8679 14.9288 17.8776C14.7888 17.8872 14.6488 17.8576 14.5248 17.792L10.2157 15.5256C10.1054 15.4717 9.9841 15.4436 9.86118 15.4436C9.73826 15.4436 9.61698 15.4717 9.50664 15.5256L5.19755 17.792C5.07358 17.8576 4.9336 17.8872 4.79354 17.8776C4.65348 17.8679 4.51896 17.8192 4.4053 17.7372C4.29163 17.6552 4.20337 17.5431 4.15058 17.4136C4.09778 17.2842 4.08255 17.1425 4.10664 17.0049L4.93846 12.1599C4.95954 12.0418 4.95062 11.9203 4.91252 11.8066C4.87441 11.6928 4.80833 11.5903 4.72027 11.5084L1.22937 8.1563C1.12609 8.05872 1.05346 7.93342 1.02027 7.79559C0.987087 7.65776 0.994771 7.51331 1.04239 7.37974C1.09002 7.24617 1.17554 7.12921 1.28859 7.04302C1.40164 6.95684 1.53738 6.90513 1.67937 6.89416L6.46573 6.18844C6.58654 6.17513 6.70174 6.13053 6.79984 6.05909C6.89794 5.98765 6.97551 5.89187 7.02482 5.7813L9.193 1.42487C9.25205 1.29799 9.34633 1.19057 9.46473 1.11529C9.58312 1.04 9.72069 1 9.86118 1C10.0017 1 10.1392 1.04 10.2576 1.11529C10.376 1.19057 10.4703 1.29799 10.5294 1.42487Z" stroke="white" stroke-width="2" stroke-linecap="round" stroke-linejoin="round"/>
</svg>
