<svg width="27" height="23" viewBox="0 0 27 23" fill="none" xmlns="http://www.w3.org/2000/svg">
<path d="M14.4605 17.9235L13.1654 19.2162C12.4916 19.8909 11.8178 20.564 11.1564 21.2434C10.9647 21.4373 10.7669 21.5792 10.4903 21.4452C10.2137 21.3112 10.2229 21.07 10.2399 20.8146C10.3698 18.9876 10.4903 17.1589 10.6294 15.3303C10.6562 15.1746 10.7341 15.0328 10.8504 14.9283C13.0624 12.8411 15.2775 10.7587 17.4957 8.68093L21.6173 4.80923C21.6903 4.75511 21.754 4.68906 21.8058 4.61376C21.8398 4.54439 21.8568 4.41197 21.8182 4.37256C21.7445 4.31844 21.6532 4.2953 21.5632 4.30793C21.4863 4.33202 21.4153 4.3723 21.3546 4.42616C16.5947 7.39299 11.8358 10.3619 7.07801 13.3329C6.99808 13.3905 6.90528 13.4267 6.8081 13.4383C6.71092 13.4499 6.61244 13.4364 6.52166 13.3992C4.60741 12.7266 2.69109 12.0597 0.772709 11.3987C0.245721 11.2158 0 10.9415 0 10.5033C0 10.065 0.219448 9.79388 0.720163 9.5984L20.347 1.92911C21.8996 1.32166 23.4538 0.716315 25.0095 0.113071C25.2566 0.00526311 25.5292 -0.02636 25.7937 0.0221069C26.0581 0.0705738 26.3029 0.197009 26.4977 0.385793C26.7021 0.555902 26.8543 0.782165 26.9365 1.0378C27.0186 1.29343 27.0273 1.56773 26.9614 1.82822C26.8264 2.45879 26.6925 3.08936 26.5596 3.71993C25.2573 9.72925 23.9571 15.7401 22.6589 21.7526C22.6326 21.8724 22.611 21.9938 22.577 22.112C22.339 22.968 21.421 23.2754 20.7024 22.7268C19.6639 21.9386 18.6362 21.1331 17.6116 20.337L14.7294 18.1127C14.6428 18.0512 14.5609 17.996 14.4605 17.9235Z" fill="#7D22C9"/>
</svg>
