<svg width="32" height="18" viewBox="0 0 32 18" fill="none" xmlns="http://www.w3.org/2000/svg">
<g clip-path="url(#clip0_264_4288)">
<path d="M30.6088 14.0386C29.912 13.2247 29.1204 12.4953 28.3548 11.7899C28.0824 11.5389 27.8012 11.2796 27.5296 11.022C26.7504 10.2808 26.722 10.0021 27.3388 9.16018C27.7656 8.57981 28.218 7.99866 28.6556 7.43659C29.0524 6.92667 29.4628 6.39924 29.8564 5.87025L29.9372 5.76165C30.6892 4.74922 31.4668 3.70253 31.8804 2.43981C31.988 2.10661 32.1008 1.61655 31.8428 1.20628C31.5848 0.796791 31.0848 0.671842 30.7312 0.613455C30.556 0.584651 30.3824 0.580758 30.2212 0.580758L25.2972 0.577255H25.2564C24.512 0.577255 24.0104 0.918236 23.7228 1.62083C23.4484 2.29189 23.1468 3.00655 22.8028 3.68618C22.118 5.03921 21.2488 6.59776 19.9904 7.89784L19.9372 7.95312C19.7888 8.10843 19.6204 8.28437 19.4972 8.28437C19.4784 8.28437 19.458 8.28086 19.4344 8.27386C19.1736 8.17499 18.9988 7.56114 19.0068 7.27544C19.0068 7.27154 19.0068 7.26765 19.0068 7.26376L19.0032 1.72593C19.0032 1.70685 19.0016 1.68778 18.9992 1.66871C18.874 0.768376 18.5964 0.208248 17.548 0.00817421C17.52 0.00272474 17.4916 0 17.4632 0H12.3432C11.5092 0 11.0496 0.330082 10.6176 0.823649C10.5008 0.955604 10.2584 1.23041 10.3784 1.56361C10.5004 1.90187 10.8968 1.97427 11.0256 1.99762C11.666 2.11634 12.0272 2.49742 12.1296 3.16381C12.308 4.32065 12.33 5.55535 12.1988 7.04967C12.162 7.465 12.0896 7.78574 11.9704 8.05977C11.9428 8.12361 11.8444 8.33224 11.744 8.33263C11.712 8.33263 11.62 8.32057 11.452 8.20769C11.0548 7.943 10.7644 7.56504 10.4256 7.09833C9.27323 5.51331 8.30603 3.76753 7.46843 1.7594C7.15763 1.02022 6.57763 0.606449 5.83403 0.594382C5.01683 0.582315 4.27603 0.576476 3.56963 0.576476C2.79763 0.576476 2.08203 0.583483 1.38323 0.597496C0.784834 0.607616 0.371234 0.782389 0.153634 1.11675C-0.0643664 1.45112 -0.0503664 1.89058 0.195634 2.42268C2.16563 6.68456 3.95203 9.78336 5.98723 12.4707C7.41363 14.3512 8.84403 15.6528 10.4888 16.5664C12.2216 17.531 14.1636 18 16.4256 18C16.682 18 16.9472 17.9938 17.2144 17.9817C18.5288 17.9194 19.0164 17.4566 19.078 16.211C19.1072 15.5746 19.1788 14.907 19.5004 14.338C19.7032 13.9795 19.8924 13.9795 19.9548 13.9795C20.0744 13.9795 20.2232 14.0332 20.3828 14.1336C20.6688 14.3154 20.914 14.5587 21.1152 14.7716C21.3044 14.9736 21.4916 15.1776 21.6792 15.3819C22.0836 15.8225 22.5016 16.278 22.9384 16.71C23.8944 17.6563 24.9472 18.0728 26.1568 17.9821H30.6712C30.6808 17.9821 30.6904 17.9821 30.7 17.9813C31.15 17.9525 31.5396 17.7096 31.7688 17.3153C32.0532 16.8268 32.0472 16.2032 31.7536 15.6474C31.4204 15.0188 30.9876 14.4816 30.6088 14.0394V14.0386Z" fill="#7D22C9"/>
</g>
<defs>
<clipPath id="clip0_264_4288">
<rect width="32" height="18" fill="white"/>
</clipPath>
</defs>
</svg>
