<svg width="32" height="32" viewBox="0 0 32 32" fill="none" xmlns="http://www.w3.org/2000/svg">
<path fill-rule="evenodd" clip-rule="evenodd" d="M16.0007 4.00065C9.37323 4.00065 4.00065 9.37323 4.00065 16.0007C4.00065 22.6281 9.37323 28.0007 16.0007 28.0007C22.6281 28.0007 28.0007 22.6281 28.0007 16.0007C28.0007 9.37323 22.6281 4.00065 16.0007 4.00065ZM1.33398 16.0007C1.33398 7.90047 7.90047 1.33398 16.0007 1.33398C24.1008 1.33398 30.6673 7.90047 30.6673 16.0007C30.6673 24.1008 24.1008 30.6673 16.0007 30.6673C7.90047 30.6673 1.33398 24.1008 1.33398 16.0007Z" fill="#7D22C9"/>
<path fill-rule="evenodd" clip-rule="evenodd" d="M13.4674 7.06775C12.5796 9.28727 12.0007 12.445 12.0007 16.0007C12.0007 19.5563 12.5796 22.714 13.4674 24.9336C13.9128 26.047 14.4098 26.8586 14.8934 27.37C15.3744 27.8787 15.749 28.0007 16.0007 28.0007C16.2523 28.0007 16.6269 27.8787 17.1079 27.37C17.5915 26.8586 18.0885 26.047 18.5339 24.9336C19.4217 22.714 20.0007 19.5563 20.0007 16.0007C20.0007 12.445 19.4217 9.28727 18.5339 7.06775C18.0885 5.95429 17.5915 5.14269 17.1079 4.63126C16.6269 4.12265 16.2523 4.00065 16.0007 4.00065C15.749 4.00065 15.3744 4.12265 14.8934 4.63126C14.4098 5.14269 13.9128 5.95429 13.4674 7.06775ZM12.9559 2.79897C13.7511 1.95818 14.7795 1.33398 16.0007 1.33398C17.2218 1.33398 18.2502 1.95818 19.0454 2.79897C19.8378 3.63695 20.4901 4.77798 21.0099 6.07737C22.0523 8.68356 22.6673 12.1926 22.6673 16.0007C22.6673 19.8088 22.0523 23.3177 21.0099 25.9239C20.4901 27.2233 19.8378 28.3643 19.0454 29.2023C18.2502 30.0431 17.2218 30.6673 16.0007 30.6673C14.7795 30.6673 13.7511 30.0431 12.9559 29.2023C12.1635 28.3643 11.5112 27.2233 10.9914 25.9239C9.94897 23.3177 9.33398 19.8088 9.33398 16.0007C9.33398 12.1926 9.94897 8.68356 10.9914 6.07737C11.5112 4.77798 12.1635 3.63695 12.9559 2.79897Z" fill="#7D22C9"/>
<path fill-rule="evenodd" clip-rule="evenodd" d="M2.66602 14.666H29.3327V17.3327H2.66602V14.666Z" fill="#7D22C9"/>
</svg>
