<svg width="39" height="39" viewBox="0 0 39 39" fill="none" xmlns="http://www.w3.org/2000/svg">
<rect x="0.5" y="0.5" width="38" height="38" rx="9.5" stroke="#7D22C9"/>
<path d="M22.957 12C23.1514 12 23.3253 12.0454 23.4785 12.1357C23.6374 12.2204 23.7642 12.3358 23.8584 12.4824C23.9527 12.6292 24 12.7961 24 12.9824C24 13.2478 23.8909 13.4854 23.6729 13.6943L17.4668 19.4961L23.6729 25.2979C23.8908 25.5067 24 25.7466 24 26.0176C24 26.1982 23.9527 26.362 23.8584 26.5088C23.7641 26.6611 23.6375 26.7796 23.4785 26.8643C23.3253 26.9546 23.1514 27 22.957 27C22.6741 27 22.4318 26.9039 22.2314 26.7119L15.3447 20.2578C15.2269 20.1449 15.138 20.0265 15.0791 19.9023C15.0261 19.7783 15 19.6427 15 19.4961C15 19.3493 15.0261 19.2131 15.0791 19.0889C15.138 18.9647 15.2269 18.8463 15.3447 18.7334L22.2314 12.2793C22.4318 12.093 22.6741 12 22.957 12Z" fill="#7D22C9"/>
<path d="M22.957 12C23.1514 12 23.3253 12.0454 23.4785 12.1357C23.6374 12.2204 23.7642 12.3358 23.8584 12.4824C23.9527 12.6292 24 12.7961 24 12.9824C24 13.2478 23.8909 13.4854 23.6729 13.6943L17.4668 19.4961L23.6729 25.2979C23.8908 25.5067 24 25.7466 24 26.0176C24 26.1982 23.9527 26.362 23.8584 26.5088C23.7641 26.6611 23.6375 26.7796 23.4785 26.8643C23.3253 26.9546 23.1514 27 22.957 27C22.6741 27 22.4318 26.9039 22.2314 26.7119L15.3447 20.2578C15.2269 20.1449 15.138 20.0265 15.0791 19.9023C15.0261 19.7783 15 19.6427 15 19.4961C15 19.3493 15.0261 19.2131 15.0791 19.0889C15.138 18.9647 15.2269 18.8463 15.3447 18.7334L22.2314 12.2793C22.4318 12.093 22.6741 12 22.957 12Z" stroke="#7D22C9"/>
</svg>
