<svg width="29" height="29" viewBox="0 0 29 29" fill="none" xmlns="http://www.w3.org/2000/svg">
<g clip-path="url(#clip0_264_1547)">
<path d="M7.52344 1.67188L7.52344 18.3871" stroke="white" stroke-width="2" stroke-linecap="square" stroke-linejoin="round"/>
<path d="M22.6113 18.627L14.2084 18.627" stroke="white" stroke-width="2" stroke-linecap="square" stroke-linejoin="round"/>
<path d="M19 9.3125L14.2099 9.3125" stroke="white" stroke-width="2" stroke-linecap="square" stroke-linejoin="round"/>
<path d="M14.209 9.3125V17.7155" stroke="white" stroke-width="2" stroke-linecap="square" stroke-linejoin="round"/>
<path d="M12.9102 9.31445L8.12006 9.31445" stroke="white" stroke-width="2" stroke-linecap="square" stroke-linejoin="round"/>
<path d="M1.01562 8.11959V3.04533C1.01562 2.50702 1.22947 1.99075 1.61011 1.61011C1.99075 1.22947 2.50702 1.01563 3.04533 1.01562H8.11959" stroke="white" stroke-width="2" stroke-linecap="round" stroke-linejoin="round"/>
<path d="M27.4008 8.11959V3.04533C27.4008 2.50702 27.187 1.99075 26.8063 1.61011C26.4257 1.22947 25.9094 1.01563 25.3711 1.01562H20.2969" stroke="white" stroke-width="2" stroke-linecap="round" stroke-linejoin="round"/>
<path d="M1.01562 20.2969V25.3711C1.01563 25.9094 1.22947 26.4257 1.61011 26.8063C1.99075 27.187 2.50702 27.4008 3.04533 27.4008H8.11959" stroke="white" stroke-width="2" stroke-linecap="round" stroke-linejoin="round"/>
<path d="M27.4008 20.2969V25.3711C27.4008 25.9094 27.187 26.4257 26.8063 26.8063C26.4257 27.187 25.9094 27.4008 25.3711 27.4008H20.2969" stroke="white" stroke-width="2" stroke-linecap="round" stroke-linejoin="round"/>
</g>
<defs>
<clipPath id="clip0_264_1547">
<rect width="28.4158" height="28.4158" fill="white"/>
</clipPath>
</defs>
</svg>
