<svg width="27" height="33" viewBox="0 0 27 33" fill="none" xmlns="http://www.w3.org/2000/svg">
<g clip-path="url(#clip0_264_1576)">
<path d="M3.904 25.8291C3.70881 25.8291 3.51361 25.7322 3.41602 25.5868L1.1713 22.3886C1.12251 22.2917 1.07371 22.1947 1.07371 22.0978L0.244141 14.0053C0.244141 13.8115 0.292939 13.5692 0.488131 13.4723L2.68405 11.7762C2.92804 11.5824 3.26962 11.5824 3.46482 11.7762L7.85665 15.556C7.95424 15.6529 8.05184 15.7498 8.05184 15.8952L9.46698 22.6309C9.51578 22.9701 9.32059 23.3093 8.979 23.3577C8.63742 23.4062 8.29583 23.2124 8.24703 22.8732L6.88069 16.3313L3.02563 13.0361L1.51289 14.1991L2.29366 21.8071L4.44078 24.8599C4.63597 25.1507 4.58717 25.5383 4.29438 25.7322C4.14799 25.7806 4.05039 25.8291 3.904 25.8291Z" fill="white" stroke="white" stroke-width="0.5" stroke-miterlimit="10"/>
<path d="M17.3242 32.7582H8.93096L4.73433 32.322C4.53913 32.322 4.39274 32.2251 4.29514 32.0797L2.53841 29.7053C2.34322 29.463 2.39202 29.0753 2.63601 28.8815L7.36943 24.7626C7.46702 24.6656 7.61342 24.6172 7.75981 24.6172H14.5427C14.6403 24.6172 14.6891 24.6172 14.7867 24.6656L20.8865 26.9916C21.1305 27.0886 21.2769 27.3308 21.2769 27.5731V30.2383C21.2769 30.4322 21.1793 30.6745 20.9841 30.7714L17.7146 32.7097C17.5682 32.7097 17.4706 32.7582 17.3242 32.7582ZM9.02856 31.5467H17.1778L20.0081 29.8507V27.9123L14.4452 25.7802H8.0038L3.90476 29.3661L5.17351 31.0621L9.02856 31.5467Z" fill="white" stroke="white" stroke-width="0.5" stroke-miterlimit="10"/>
<path d="M21.2263 25.9244C21.1287 25.9244 21.0311 25.8759 20.9335 25.8275C20.6407 25.6821 20.5431 25.2944 20.6895 25.0037L25.3742 16.572L22.6415 12.986L17.6641 15.5543L15.029 23.3076C14.9314 23.6468 14.5898 23.7922 14.2482 23.6953C13.9066 23.5984 13.7602 23.2592 13.8578 22.92L16.5905 14.9244C16.6393 14.779 16.7369 14.6336 16.8833 14.5852L22.5439 11.6777C22.8367 11.5323 23.1294 11.6292 23.3246 11.8715L26.5941 16.1843C26.7405 16.3781 26.7405 16.6204 26.6429 16.8627L21.7631 25.6336C21.6167 25.8275 21.4215 25.9244 21.2263 25.9244Z" fill="white" stroke="white" stroke-width="0.5" stroke-miterlimit="10"/>
<path d="M7.07578 13.3259C6.7342 13.3259 6.44141 13.0351 6.44141 12.6959V9.35232C6.44141 9.2554 6.4902 9.11003 6.539 9.06157L11.6628 0.532936C11.7604 0.387562 11.9556 0.242188 12.1508 0.242188C12.346 0.242188 12.5412 0.290646 12.6876 0.43602L19.5681 7.70474C19.6657 7.85012 19.7633 7.99549 19.7145 8.14087L19.5193 11.4845C19.5193 11.8237 19.2265 12.066 18.8849 12.066C18.5433 12.066 18.2993 11.7752 18.2993 11.436L18.4945 8.3347L12.3948 1.84131L7.80775 9.54615V12.7444C7.71016 13.0351 7.41737 13.3259 7.07578 13.3259Z" fill="white" stroke="white" stroke-width="0.5" stroke-miterlimit="10"/>
<path d="M24.3014 31.2552L22.6422 31.1583C22.3006 31.1583 22.0566 30.8675 22.0566 30.5283C22.0566 30.1891 22.3494 29.9468 22.691 29.9468L23.9598 29.9953L25.3749 27.2816L23.4718 25.2464C23.2278 25.0041 23.2766 24.6164 23.5206 24.3741C23.7646 24.1318 24.155 24.1803 24.399 24.4226L26.5949 26.797C26.7901 26.9909 26.7901 27.2816 26.6925 27.4755L24.8869 30.916C24.7405 31.1098 24.5453 31.2552 24.3014 31.2552Z" fill="white" stroke="white" stroke-width="0.5" stroke-miterlimit="10"/>
</g>
<defs>
<clipPath id="clip0_264_1576">
<rect width="27" height="33" fill="white"/>
</clipPath>
</defs>
</svg>
