<svg width="33" height="31" viewBox="0 0 33 31" fill="none" xmlns="http://www.w3.org/2000/svg">
<path d="M16.6495 17.7946C19.5065 17.7946 21.8225 15.4223 21.8225 12.4959C21.8225 9.56957 19.5065 7.19727 16.6495 7.19727C13.7926 7.19727 11.4766 9.56957 11.4766 12.4959C11.4766 15.4223 13.7926 17.7946 16.6495 17.7946Z" stroke="white" stroke-width="2" stroke-linecap="round" stroke-linejoin="round"/>
<path d="M7.8125 26.0604C8.73586 24.5079 10.0336 23.2249 11.5809 22.3345C13.1283 21.4442 14.8732 20.9766 16.6479 20.9766C18.4227 20.9766 20.1676 21.4442 21.715 22.3345C23.2623 23.2249 24.56 24.5079 25.4834 26.0604" stroke="white" stroke-width="2" stroke-linecap="round" stroke-linejoin="round"/>
<path d="M16.6489 29.4516C24.077 29.4516 30.0987 23.2836 30.0987 15.675C30.0987 8.06642 24.077 1.89844 16.6489 1.89844C9.22087 1.89844 3.19922 8.06642 3.19922 15.675C3.19922 23.2836 9.22087 29.4516 16.6489 29.4516Z" stroke="white" stroke-width="2" stroke-linecap="round" stroke-linejoin="round"/>
</svg>
