<svg width="45" height="45" viewBox="0 0 45 45" fill="none" xmlns="http://www.w3.org/2000/svg">
<circle cx="22.5" cy="22.5" r="22.5" fill="#7D22C9"/>
<path fill-rule="evenodd" clip-rule="evenodd" d="M24.4097 14.0878C24.7689 14.2491 25 14.6062 25 15V33C25 33.3938 24.7689 33.7509 24.4097 33.9123C24.0504 34.0736 23.63 34.009 23.3356 33.7474L17.9948 29H14C13.4477 29 13 28.5523 13 28V20C13 19.4477 13.4477 19 14 19H17.9948L23.3356 14.2526C23.63 13.991 24.0504 13.9265 24.4097 14.0878ZM23 17.2269L19.0394 20.7474C18.8563 20.9101 18.6199 21 18.375 21H15V27H18.375C18.6199 27 18.8563 27.0899 19.0394 27.2526L23 30.7732V17.2269Z" fill="white"/>
<path fill-rule="evenodd" clip-rule="evenodd" d="M31.7932 26.8283L26.6719 21.707L28.0861 20.2928L33.2074 25.4141L31.7932 26.8283Z" fill="white"/>
<path fill-rule="evenodd" clip-rule="evenodd" d="M33.2074 21.707L28.0861 26.8283L26.6719 25.4141L31.7932 20.2928L33.2074 21.707Z" fill="white"/>
</svg>
