<svg width="45" height="45" viewBox="0 0 45 45" fill="none" xmlns="http://www.w3.org/2000/svg">
<circle cx="22.5" cy="22.5" r="22.5" fill="#7D22C9"/>
<path fill-rule="evenodd" clip-rule="evenodd" d="M23.4097 12.0878C23.7689 12.2491 24 12.6062 24 13V31C24 31.3938 23.7689 31.7509 23.4097 31.9123C23.0504 32.0736 22.63 32.009 22.3356 31.7474L16.9948 27H13C12.4477 27 12 26.5523 12 26V18C12 17.4477 12.4477 17 13 17H16.9948L22.3356 12.2526C22.63 11.991 23.0504 11.9265 23.4097 12.0878ZM22 15.2269L18.0394 18.7474C17.8563 18.9101 17.6199 19 17.375 19H14V25H17.375C17.6199 25 17.8563 25.0899 18.0394 25.2526L22 28.7732V15.2269Z" fill="white"/>
<path fill-rule="evenodd" clip-rule="evenodd" d="M24.9874 20.2111L24.6055 19.4472L26.3943 18.5527L26.7763 19.3167C27.6209 21.0058 27.6209 22.9941 26.7763 24.6832L26.3943 25.4472L24.6055 24.5527L24.9874 23.7888C25.5505 22.6627 25.5505 21.3372 24.9874 20.2111Z" fill="white"/>
<path fill-rule="evenodd" clip-rule="evenodd" d="M27.8224 19.5631L27.0859 17.906L28.9136 17.0938L29.65 18.7508C30.5694 20.8193 30.5694 23.1805 29.65 25.249L28.9136 26.906L27.0859 26.0938L27.8224 24.4367C28.5119 22.8853 28.5119 21.1144 27.8224 19.5631Z" fill="white"/>
<path fill-rule="evenodd" clip-rule="evenodd" d="M30.6348 18.9229L29.5771 16.3845L31.4233 15.6152L32.481 18.1537C33.5066 20.6152 33.5066 23.3845 32.481 25.846L31.4233 28.3845L29.5771 27.6152L30.6348 25.0768C31.4554 23.1075 31.4554 20.8922 30.6348 18.9229Z" fill="white"/>
</svg>
