<svg width="343" height="495" viewBox="0 0 343 495" fill="none" xmlns="http://www.w3.org/2000/svg">
<g clip-path="url(#clip0_449_6048)">
<path d="M279.072 7.9125C276.902 9.24006 273.918 15.6495 272.862 21.2738C272.191 24.8711 272.362 34.3211 273.176 37.9326C275.888 49.9806 282.327 59.1023 292.306 65.0407C298.017 68.4381 302.757 69.8656 309.124 70.1083C316.334 70.3937 320.702 69.1804 326.784 65.2405C332.337 61.6432 338.576 54.5058 340.689 49.3525C342.217 45.6125 342.631 43.3856 342.631 39.0889C342.631 31.1663 340.09 24.7426 334.993 19.7464C330.467 15.2926 325.627 13.1942 319.36 12.923C314.934 12.7374 312.236 13.2941 308.567 15.1784C302.143 18.4617 298.045 23.6577 296.518 30.424C294.433 39.6884 296.603 46.6546 302.6 49.9093C304.541 50.9656 304.841 51.0227 307.782 51.0227C310.723 51.0227 311.051 50.9371 312.436 50.1234C315.063 48.5817 316.633 46.155 317.304 42.6005C317.89 39.5171 316.59 36.1054 314.806 36.1054C313.749 36.1054 313.15 37.1332 312.75 39.6313C312.379 41.9153 311.537 43.5141 310.038 44.7846C307.382 47.0257 302.871 44.2564 301.843 39.7598C300.772 35.1062 304.227 28.8681 309.252 26.427C312.836 24.6712 317.647 25.3993 320.888 28.1543C322.815 29.7959 324.7 32.7937 325.542 35.5487C326.141 37.5187 326.199 38.3609 326.056 42.4435C325.956 45.2271 325.67 47.8822 325.342 49.0528C323.172 56.9182 317.49 62.4284 309.781 64.1556C298.788 66.6109 284.954 57.2894 279.6 43.8139C277.887 39.5171 277.273 36.3909 277.088 31.1806C276.959 27.5262 277.045 25.7561 277.473 23.5007C278.201 19.6036 279.686 15.207 281.285 12.2378C282.713 9.58266 282.855 8.61197 281.956 7.7983C281.171 7.08456 280.371 7.11311 279.086 7.89823L279.072 7.9125Z" fill="white" fill-opacity="0.13"/>
<path d="M242.697 35.3786C237.414 41.5882 233.602 49.5822 231.675 58.504C230.676 63.1576 230.604 72.008 231.547 73.9209C233.174 77.2041 237.214 77.2469 238.628 74.0208C239.056 73.0501 239.527 69.9382 240.227 63.2575C241.669 49.8105 242.739 44.072 245.152 36.9489C246.351 33.423 246.366 33.166 245.338 33.166C244.767 33.166 244.053 33.7656 242.668 35.3786H242.697Z" fill="white" fill-opacity="0.13"/>
<path d="M71.8506 41.217C74.6916 42.6017 81.2016 39.3755 89.3963 32.5093C93.8077 28.8121 96.6202 25.743 96.2061 25.0721C95.8064 24.4155 95.0355 24.7152 85.299 29.2975C71.7078 35.6783 70.2944 36.5634 70.3087 38.5762C70.3087 39.4755 71.1367 40.8744 71.8506 41.217Z" fill="white" fill-opacity="0.13"/>
<path d="M286.067 88.5655C284.882 89.4933 284.368 91.1778 284.854 92.6481C285.382 94.2611 286.595 95.1176 288.38 95.1176C289.593 95.1176 290.036 94.9321 290.95 94.0042C291.849 93.1049 292.063 92.6338 292.063 91.5061C292.063 90.3784 291.849 89.9073 290.95 89.008C290.05 88.1087 289.593 87.8945 288.38 87.8945C287.409 87.8945 286.624 88.1229 286.067 88.5512V88.5655Z" fill="white" fill-opacity="0.13"/>
<path d="M326.327 96.2613C323.457 97.0322 322.301 99.4018 324.014 101.001C324.713 101.657 325.327 101.8 328.511 102.028C341.959 103.013 347.284 103.998 355.85 107.067C359.063 108.224 360.162 108.209 359.205 107.025C358.135 105.697 353.266 102.457 349.926 100.829C341.431 96.6896 331.737 94.8053 326.327 96.2613Z" fill="white" fill-opacity="0.13"/>
<path d="M150.141 55.277C147.272 56.0478 146.115 58.4174 147.828 60.0162C148.528 60.6729 149.142 60.8156 152.325 61.044C165.774 62.029 171.099 63.0139 179.665 66.0831C182.877 67.2393 183.976 67.225 183.02 66.0402C181.949 64.7127 177.081 61.4723 173.74 59.8449C165.246 55.7052 155.552 53.8209 150.141 55.277Z" fill="white" fill-opacity="0.13"/>
<path d="M109.44 48.1686C105.7 50.1956 101.931 55.1919 100.489 60.0596C99.5754 63.1287 99.7039 67.611 100.789 70.6944C102.388 75.2481 105.086 78.203 109.612 80.3871C115.636 83.2849 122.089 82.2856 126.9 77.6891C130.327 74.4202 132.254 69.1955 131.483 65.2271C130.455 59.8598 126.758 56.391 121.69 56.0341C118.849 55.8342 116.636 56.5194 114.694 58.2324C110.725 61.7012 110.34 68.439 113.98 70.7943C115.879 72.022 116.593 72.1362 117.378 71.3511C118.249 70.4803 118.22 70.0378 117.178 68.5103C115.751 66.4262 115.622 65.6839 116.35 64.0138C117.121 62.2437 118.349 61.5156 120.562 61.5299C126.486 61.5442 128.242 68.9529 123.474 73.8492C122.161 75.2053 121.404 75.6763 119.862 76.1189C112.381 78.2744 105.3 71.4367 106.014 62.7718C106.485 57.119 108.57 53.279 112.867 50.11C113.895 49.3534 114.737 48.5969 114.737 48.4256C114.737 47.8831 113.295 47.1265 112.296 47.1408C111.739 47.1408 110.454 47.6119 109.398 48.1829L109.44 48.1686Z" fill="white" fill-opacity="0.13"/>
<path d="M31.7186 158.955C27.7069 147.207 15.9574 139.099 2.45189 138.785C-1.33136 138.699 -7.71293 140.098 -11.4819 141.854C-20.8615 146.222 -25.8583 152.061 -27.7428 160.868C-28.6565 165.136 -28.6565 167.349 -27.7713 170.689C-26.929 173.858 -25.5727 175.828 -23.8167 176.428C-22.2035 176.985 -21.7324 176.371 -22.175 174.301C-22.5747 172.388 -22.5033 169.305 -22.0036 166.864C-21.4469 164.166 -17.892 158.285 -15.2366 155.672C-14.123 154.573 -12.0387 152.917 -10.6539 152.032C-8.19833 150.448 -7.9699 150.376 -3.43 149.42C2.10926 148.264 4.05085 148.292 8.66214 149.648C14.0586 151.233 18.4415 154.916 20.74 159.826C22.4532 163.452 23.0099 168.591 22.1391 172.702C21.5395 175.571 18.9554 179.754 16.9425 181.124C13.5875 183.394 9.80425 183.837 5.00737 182.509C-2.25933 180.496 -6.84206 173.159 -4.27231 167.692C-3.17302 165.336 -0.888798 164.237 1.76662 164.78C3.69394 165.179 4.65046 166.293 4.82177 168.363C4.89315 169.276 4.8646 170.475 4.73612 171.032C4.40776 172.474 4.67901 173.259 5.64981 173.687C6.44929 174.044 6.59206 174.015 7.40582 173.33C9.19037 171.86 9.50445 166.578 7.97687 163.78C7.10601 162.182 4.79323 160.469 2.82308 159.955C1.43827 159.598 0.638779 159.612 -1.50269 160.069C-3.78691 160.554 -4.32941 160.783 -5.60002 161.853C-8.12694 163.98 -9.59742 167.349 -9.82584 171.503C-9.96861 174.158 -8.79794 178.869 -7.38457 181.296C-4.40079 186.42 1.16702 190.689 6.94897 192.273C10.6894 193.301 13.7445 193.315 17.7419 192.302C21.668 191.302 23.995 190.018 26.5791 187.448C29.7484 184.279 32.361 178.869 33.0177 174.101C33.6459 169.505 33.0891 163.095 31.6757 158.984L31.7186 158.955Z" fill="white" fill-opacity="0.13"/>
<path d="M14.8594 11.6677C8.04958 13.452 2.55315 17.9914 -0.559111 24.3723C-3.72848 30.8674 -3.69992 39.7607 -0.487724 45.8418C3.30981 53.0506 11.7757 56.3196 18.3286 53.1077C20.7128 51.9372 23.7394 48.6254 24.6816 46.1558C26.3234 41.8448 25.3954 37.6908 21.9691 34.0507C19.485 31.3956 17.2579 30.639 15.5447 31.8381C13.9172 32.9944 14.0028 35.1071 15.8017 37.3625C17.1722 39.0755 17.5862 40.503 17.1722 42.0447C16.6583 43.986 15.459 44.9139 13.5888 44.8711C11.5901 44.814 10.3338 44.1716 8.83478 42.4158C6.83608 40.089 6.17937 37.9478 6.16509 33.7652C6.16509 30.5534 6.25075 29.9824 7.03595 28.2979C9.50577 23.059 15.3877 19.5189 20.984 19.9328C24.4817 20.1898 26.5233 21.2604 29.7498 24.5151C32.7764 27.5699 34.7037 30.5962 36.0171 34.4076C36.8451 36.82 36.9308 37.4339 36.9451 42.116C36.9593 47.4834 36.6881 49.0965 34.9749 53.6359C32.1339 61.2158 24.5674 67.7966 15.5733 70.5231C13.0178 71.2939 12.1755 71.3939 7.96392 71.3939C4.12356 71.3939 2.72446 71.2511 0.597277 70.6801C-6.64087 68.7102 -12.0231 64.4848 -15.2638 58.1896C-16.8628 55.0919 -17.4053 53.4218 -18.3904 48.5397C-19.2755 44.1716 -19.6181 43.5435 -20.5461 44.6712C-21.3456 45.6419 -21.6739 49.7246 -21.2314 52.8508C-20.1178 60.5878 -15.478 67.768 -8.83944 72.079C3.36691 79.9731 19.6991 78.8025 31.7913 69.1527C38.4298 63.8567 44.0262 53.9071 45.3253 45.1138C45.8821 41.3309 45.568 34.5218 44.6829 31.1386C42.727 23.6158 37.7731 17.3633 30.8348 13.6233C26.0093 11.0253 20.0703 10.2973 14.8594 11.6677Z" fill="white" fill-opacity="0.13"/>
<path d="M196.026 15.7932C186.418 18.3627 179.722 26.2567 179.08 35.7781C178.694 41.588 181.564 47.9688 185.718 50.5383C187.032 51.352 188.73 51.2663 189.273 50.3813C189.573 49.8817 189.473 49.6818 188.659 49.0823C184.348 45.9418 182.263 42.0448 182.263 37.1485C182.263 27.3559 193.827 18.5911 203.364 21.1606C206.048 21.8886 207.347 22.5595 208.989 24.0584C212.544 27.3273 212.843 31.9096 209.76 35.8066C208.518 37.3769 205.862 38.9471 203.992 39.2326C201.065 39.6751 197.753 37.6766 197.039 35.0215C196.697 33.7368 196.968 32.1665 197.682 31.31C198.296 30.5677 199.909 30.739 200.994 31.6526C202.607 33.0087 204.549 32.6519 204.549 30.996C204.549 29.2544 201.522 27.1418 199.081 27.1703C195.697 27.2131 193.399 30.0253 193.399 34.1222C193.399 39.8607 197.61 43.7863 204.235 44.2145C209.945 44.5857 214.828 41.588 217.455 36.0921C218.397 34.1222 218.468 33.7225 218.468 30.5392C218.468 27.3559 218.397 26.9419 217.426 24.8863C216.241 22.3882 213.786 19.5903 211.459 18.1057C207.347 15.4649 200.88 14.4942 196.04 15.7932H196.026Z" fill="white" fill-opacity="0.13"/>
<path d="M33.4455 216.084C24.5513 216.084 24.5371 229.902 33.4455 229.902C42.354 229.902 42.354 216.084 33.4455 216.084Z" fill="white" fill-opacity="0.13"/>
<path d="M56.0315 114.703C47.1373 114.703 47.123 128.521 56.0315 128.521C64.94 128.521 64.94 114.703 56.0315 114.703Z" fill="white" fill-opacity="0.13"/>
<path d="M113.822 -0.351562C104.928 -0.351562 104.914 13.4665 113.822 13.4665C122.731 13.4665 122.731 -0.351562 113.822 -0.351562Z" fill="white" fill-opacity="0.13"/>
<path d="M8.74744 105.539C4.30747 105.539 4.2932 112.448 8.74744 112.448C13.2017 112.448 13.2017 105.539 8.74744 105.539Z" fill="white" fill-opacity="0.13"/>
<path d="M83.8861 69.8242C79.4461 69.8242 79.4319 76.7333 83.8861 76.7333C88.3404 76.7333 88.3404 69.8242 83.8861 69.8242Z" fill="white" fill-opacity="0.13"/>
<path d="M141.148 27.2695C136.708 27.2695 136.694 34.1786 141.148 34.1786C145.602 34.1786 145.602 27.2695 141.148 27.2695Z" fill="white" fill-opacity="0.13"/>
<path d="M202.093 87.6816C197.653 87.6816 197.639 94.5907 202.093 94.5907C206.547 94.5907 206.547 87.6816 202.093 87.6816Z" fill="white" fill-opacity="0.13"/>
<path d="M253.046 10.9824C248.606 10.9824 248.592 17.8915 253.046 17.8915C257.501 17.8915 257.501 10.9824 253.046 10.9824Z" fill="white" fill-opacity="0.13"/>
<path d="M266.709 70.5664C257.815 70.5664 257.801 84.3845 266.709 84.3845C275.618 84.3845 275.618 70.5664 266.709 70.5664Z" fill="white" fill-opacity="0.13"/>
<path d="M42.8978 191.703C38.4579 191.703 38.4436 198.612 42.8978 198.612C47.3521 198.612 47.3521 191.703 42.8978 191.703Z" fill="white" fill-opacity="0.13"/>
<path d="M163.204 10.9824C158.765 10.9824 158.75 17.8915 163.204 17.8915C167.659 17.8915 167.659 10.9824 163.204 10.9824Z" fill="white" fill-opacity="0.13"/>
<path d="M59.7146 71.9512C52.6049 71.9512 52.5906 82.9999 59.7146 82.9999C66.8385 82.9999 66.8385 71.9512 59.7146 71.9512Z" fill="white" fill-opacity="0.13"/>
<path d="M38.7006 91.3652C34.2606 91.3652 34.2463 98.2743 38.7006 98.2743C43.1548 98.2743 43.1548 91.3652 38.7006 91.3652Z" fill="white" fill-opacity="0.13"/>
<path d="M13.4879 88.3809C9.93305 88.3809 9.91878 93.9052 13.4879 93.9052C17.057 93.9052 17.057 88.3809 13.4879 88.3809Z" fill="white" fill-opacity="0.13"/>
<path d="M331.851 -2.50781C328.296 -2.50781 328.282 3.01657 331.851 3.01657C335.42 3.01657 335.42 -2.50781 331.851 -2.50781Z" fill="white" fill-opacity="0.13"/>
<path d="M145.043 480.799C148.195 480.577 152.22 474.529 155.884 464.485C157.856 459.077 158.757 455.013 158.063 454.639C157.388 454.27 156.87 454.915 150.729 463.752C142.15 476.074 141.368 477.547 142.387 479.283C142.836 480.061 144.253 480.859 145.043 480.799Z" fill="white" fill-opacity="0.13"/>
<path d="M316.484 378.802C309.04 386.067 306.546 397.479 309.709 409.811C310.502 412.898 310.76 413.458 313.679 418.514C317.098 424.436 318.834 426.615 322.726 429.873C329.103 435.207 338.503 437.527 346.765 435.79C348.869 435.35 350.244 434.82 352.947 433.391C357.001 431.248 358.744 429.813 360.505 427.181C362.488 424.191 363.218 419.088 361.776 418.19C360.879 417.636 360.027 418.244 359.128 420.114C357.825 422.795 355.567 424.939 352.285 426.62C348.859 428.367 346.37 428.881 342.694 428.597C336.404 428.124 330.434 424.549 325.526 418.333C323.476 415.725 320.767 410.548 319.963 407.699C318.27 401.655 319.356 394.484 322.689 389.692C325.992 384.933 329.852 382.655 335.29 382.251C340.015 381.897 343.396 383.357 346.471 387.054C348.4 389.369 349.679 392.125 349.839 394.258C350.035 396.996 348.78 401.562 347.245 403.7C345.427 406.233 342.971 407.833 340.726 407.942C337.965 408.07 335.023 406.059 334.075 403.359C333.582 401.963 334.064 400.943 336.099 399.042C337.88 397.388 338.278 396.449 337.664 395.386C337.051 394.323 335.968 394.19 333.958 394.905C331.953 395.601 330.781 396.541 329.508 398.447C327.608 401.324 327.773 404.294 330.055 407.675C332.876 411.848 337.503 414.352 341.86 414.046C344.459 413.864 347.92 412.179 350.131 410.012C353.4 406.823 356.228 401.3 356.704 397.184C357.308 392.006 356.38 387.201 353.997 383.072C352.284 380.105 350.513 378.21 347.497 376.127C341.592 372.036 335.549 370.679 329.241 372.03C325.616 372.804 319.132 376.251 316.511 378.819L316.484 378.802Z" fill="white" fill-opacity="0.13"/>
<path d="M14.7928 424.995C12.567 428.621 11.8011 434.832 12.9862 439.769C13.7295 442.884 16.0819 446.701 18.5632 448.829C22.2248 451.973 26.039 453.183 31.0504 452.812C37.7168 452.309 42.8056 448.217 44.6739 441.831C46.0067 437.287 45.0635 431.798 42.4116 428.747C38.8378 424.613 33.9012 423.457 29.3336 425.682C26.7733 426.93 25.1995 428.63 24.3745 431.084C22.6718 436.072 25.7069 442.1 30.0373 442.32C32.2955 442.434 32.9708 442.176 33.2582 441.103C33.577 439.913 33.3311 439.545 31.6648 438.743C29.3864 437.652 28.904 437.073 28.6994 435.263C28.482 433.344 29.1813 432.1 31.1048 431.006C36.2429 428.056 41.468 433.594 39.7866 440.218C39.3272 442.05 38.9075 442.836 37.7934 443.99C32.3926 449.597 22.8413 447.216 19.1271 439.355C16.7087 434.224 16.5938 429.856 18.7308 424.963C19.2427 423.794 19.5939 422.718 19.5082 422.57C19.237 422.1 17.61 422.166 16.7516 422.678C16.2694 422.956 15.3922 424.006 14.7628 425.029L14.7928 424.995Z" fill="white" fill-opacity="0.13"/>
<path d="M323.407 260.624C322.647 261.277 322.2 263.101 322.562 264.128C323.497 266.803 327.07 267.196 328.55 264.792C330.078 262.327 328.173 259.455 325.252 259.822C324.612 259.912 324.042 260.01 324.019 260.056C323.984 260.11 323.723 260.343 323.407 260.624Z" fill="white" fill-opacity="0.13"/>
<path d="M303.473 293.825C293.631 301.419 290.064 315.941 294.614 329.961C295.892 333.888 299.525 340.066 302.553 343.427C310.105 351.825 317.506 355.249 326.639 354.592C331.071 354.275 333.188 353.63 336.073 351.717C338.817 349.902 340.214 347.925 340.159 345.945C340.107 344.113 339.36 343.819 337.53 344.875C335.836 345.853 332.842 346.692 330.334 346.887C327.546 347.112 320.617 345.162 317.161 343.202C315.711 342.374 313.366 340.712 312.017 339.545C309.615 337.47 309.469 337.275 306.921 332.861C303.817 327.483 303.152 325.477 302.799 320.324C302.386 314.299 304.359 308.693 308.236 304.872C311.104 302.045 315.846 299.951 320.093 299.625C323.066 299.408 328.013 300.838 330.032 302.507C333.423 305.297 335.203 309.066 335.632 314.406C336.297 322.495 330.908 329.38 324.738 328.344C322.089 327.895 320.208 325.866 319.779 322.982C319.474 320.883 320.202 319.573 322.13 318.773C322.973 318.434 324.156 318.114 324.718 318.086C326.222 318.009 326.882 317.496 326.936 316.361C326.996 315.436 326.91 315.288 325.963 314.648C323.908 313.23 318.738 314.468 316.586 316.88C315.364 318.245 314.546 321.141 314.766 323.321C314.909 324.854 315.214 325.667 316.42 327.756C317.698 329.969 318.118 330.468 319.597 331.46C322.556 333.444 326.303 333.967 330.375 332.968C332.972 332.326 337.076 329.726 338.897 327.57C342.748 322.99 344.847 315.976 344.302 309.549C343.956 305.381 342.865 302.235 340.454 298.402C338.093 294.655 336.027 292.618 332.619 290.712C328.436 288.379 322.306 287.27 317.495 287.988C312.855 288.689 306.902 291.17 303.454 293.82L303.473 293.825Z" fill="white" fill-opacity="0.13"/>
<path d="M42.5709 368.099C39.9649 361.559 34.7857 356.661 28.0713 354.354C21.2366 352.005 12.4139 353.124 6.77264 357.058C0.0839227 361.711 -2.12216 370.514 1.86904 376.623C3.32312 378.846 6.98106 381.444 9.54752 382.076C14.0273 383.177 18.0362 381.746 21.2286 377.899C23.5591 375.108 24.0368 372.805 22.6367 371.252C21.2896 369.779 19.2034 370.123 17.1855 372.185C15.6535 373.755 14.2876 374.341 12.7068 374.119C10.717 373.847 9.64907 372.771 9.46223 370.909C9.27379 368.919 9.75725 367.593 11.316 365.89C13.3801 363.621 15.4247 362.707 19.5739 362.18C22.7615 361.786 23.3387 361.801 25.1067 362.374C30.609 364.182 34.8437 369.586 35.1191 375.19C35.2931 378.693 34.4809 380.851 31.6465 384.452C28.9858 387.83 26.2188 390.114 22.5972 391.885C20.3045 393.003 19.7058 393.163 15.0607 393.751C9.73564 394.424 8.10148 394.352 3.38624 393.209C-4.48493 391.319 -11.9439 384.616 -15.7528 376.025C-16.8312 373.583 -17.0337 372.759 -17.5501 368.579C-18.0211 364.768 -18.051 363.362 -17.7452 361.181C-16.6777 353.756 -13.1443 347.896 -7.29397 343.908C-4.41578 341.941 -2.82474 341.198 1.89963 339.621C6.12623 338.207 6.70756 337.79 5.47456 337.008C4.41315 336.333 0.321059 336.508 -2.72728 337.33C-10.2693 339.384 -16.8264 344.87 -20.2908 351.987C-26.6283 365.069 -23.4638 381.135 -12.4039 391.952C-6.33376 397.891 4.22703 402.225 13.1133 402.436C16.9359 402.525 23.6551 401.378 26.9042 400.085C34.1304 397.221 39.7281 391.538 42.5891 384.193C44.5757 379.085 44.5699 373.102 42.5709 368.099Z" fill="white" fill-opacity="0.13"/>
<path d="M204.028 413.447C203.798 414.305 204.843 414.658 208.231 414.845C213.082 415.11 216.282 415.883 224.605 418.792C231.915 421.346 233.205 421.524 234.876 420.164C236.547 418.804 236.698 416.211 235.208 414.401C233.504 412.335 226.308 409.864 220.9 409.492C217.361 409.244 213.573 409.65 210.452 410.612C207.639 411.478 204.155 413.011 204.04 413.44L204.028 413.447Z" fill="white" fill-opacity="0.13"/>
<path d="M355.767 217.923C347.754 224.46 341.351 234.355 338.569 244.499C337.301 249.155 337.373 250.993 338.905 253.075C340.631 255.408 343.568 255.212 345.474 252.661C345.852 252.146 346.763 250.153 347.508 248.19C349.945 241.789 355.275 229.036 357.33 224.685C360.793 217.378 361.387 215.865 361.03 215.246C360.751 214.764 360.504 214.792 359.258 215.462C358.465 215.887 356.882 216.999 355.759 217.91L355.767 217.923Z" fill="white" fill-opacity="0.13"/>
<path d="M290.168 366.681C286.995 375.633 286.013 389.008 287.857 398.113C288.967 403.604 290.321 405.608 292.789 405.485C294.402 405.395 295.731 403.985 295.764 402.301C295.781 401.615 295.216 397.211 294.526 392.532C293.075 382.738 292.504 376.409 292.49 369.675C292.472 365.218 292.221 364.012 291.375 364.204C291.186 364.247 290.645 365.367 290.168 366.681Z" fill="white" fill-opacity="0.13"/>
<path d="M272.156 231.201C272.155 231.4 273.76 233.324 275.712 235.477C277.677 237.623 280.183 240.479 281.286 241.82C285.37 246.78 290.127 252.078 291.257 252.893C292.935 254.116 294.408 254.353 296.021 253.636C297.723 252.901 298.688 251.289 298.548 249.474C298.188 245.083 290.645 237.9 281.822 233.582C275.984 230.722 272.179 229.787 272.156 231.201Z" fill="white" fill-opacity="0.13"/>
<path d="M78.3269 404.676C79.2728 404.344 81.076 404.869 81.7844 405.696C83.6336 407.843 82.1873 411.134 79.3651 411.214C76.4668 411.305 74.9321 408.218 76.7102 405.873C77.1081 405.363 77.478 404.919 77.5294 404.922C77.5931 404.918 77.9255 404.809 78.3269 404.676Z" fill="white" fill-opacity="0.13"/>
<path d="M55.423 437.416C58.902 438.902 65.8737 443.382 69.9186 446.734C81.9308 456.661 90.6604 468.269 92.8939 477.248C93.9628 481.527 91.2373 485.457 87.566 484.923C85.4114 484.618 84.8609 483.864 77.2539 471.031C68.9493 457.018 65.0312 451.517 56.4235 441.833C54.7293 439.926 53.3049 438.145 53.2577 437.892C53.1267 437.094 54.1616 436.859 55.4159 437.404L55.423 437.416Z" fill="white" fill-opacity="0.13"/>
<path d="M262.034 455.812C269.599 452.697 279.051 455.449 285.545 462.644C287.368 464.657 289.686 468.759 290.605 471.607C292.903 478.67 292.43 484.02 289.046 489.007C287.406 491.421 286.346 492.412 284.304 493.443C282.372 494.409 280.776 494.556 279.673 493.874C278.651 493.245 278.721 492.71 279.932 492.01C281.045 491.368 282.507 489.931 283.448 488.563C284.495 487.035 285.659 482.457 285.681 479.84C285.685 478.733 285.509 476.857 285.286 475.7C284.895 473.651 284.834 473.488 283.163 470.596C281.122 467.06 280.19 466.016 277.376 464.113C274.084 461.893 270.234 461.165 266.78 462.121C264.219 462.825 261.475 464.838 259.893 467.152C258.788 468.779 257.981 472.063 258.256 473.767C258.734 476.623 260.295 478.87 263.185 480.877C267.576 483.914 273.278 483.111 274.709 479.251C275.332 477.59 274.793 475.857 273.283 474.668C272.188 473.8 271.19 473.784 270.108 474.622C269.631 474.996 269.064 475.555 268.865 475.867C268.32 476.693 267.814 476.903 267.161 476.571C266.62 476.29 266.57 476.204 266.512 475.446C266.375 473.811 268.793 471.261 270.872 470.835C272.054 470.598 273.963 471.078 275.139 471.915C275.954 472.5 276.326 472.944 277.119 474.316C277.961 475.775 278.094 476.177 278.177 477.348C278.336 479.68 277.4 482 275.486 483.995C274.265 485.277 271.436 486.745 269.601 487.079C265.728 487.766 261.031 486.654 257.553 484.228C255.29 482.65 253.861 481.003 252.468 478.362C251.111 475.783 250.635 473.931 250.667 471.358C250.708 468.203 252.095 464.352 254.094 461.847C256.015 459.435 259.391 456.86 262.037 455.761L262.034 455.812Z" fill="white" fill-opacity="0.13"/>
<path d="M45.9237 469.669C50.054 468.257 56.0268 469.094 59.7795 471.625C65.5178 475.483 68.0546 482.161 66.2953 488.764C65.0115 493.593 61.5959 497.642 57.4947 499.219C53.7435 500.659 49.7658 499.709 50.5585 497.57C50.7458 497.066 51.1985 496.936 53.351 496.782C56.6754 496.544 58.7811 495.394 60.5354 492.864C61.9307 490.856 62.8553 487.289 62.7085 484.522C62.4428 479.665 58.4907 475.303 53.3291 474.13C50.8654 473.574 49.527 473.655 46.8995 474.529C44.4542 475.347 42.7034 476.655 41.4089 478.638C38.4348 483.224 41.6262 488.98 47.3973 489.439C49.2289 489.585 49.7278 489.478 51.093 488.673C52.9457 487.571 53.3141 486.781 53.0932 484.486C52.8877 482.445 52.1441 481.671 50.5566 481.862C49.077 482.041 48.6791 482.551 48.419 484.613C48.0664 487.371 46.5472 486.996 45.9319 483.988C45.4104 481.372 45.9736 479.778 47.8281 478.707C49.4478 477.772 50.6991 477.626 52.4723 478.185C54.226 478.738 54.9224 479.259 55.7361 480.669C56.6425 482.239 56.8669 485.34 56.1886 486.935C55.9082 487.591 55.1005 488.733 54.3778 489.48C52.8178 491.09 50.2179 492.211 48.1743 492.155C46.63 492.107 43.9896 491.274 42.6862 490.445C41.1431 489.456 38.664 486.619 38.0643 485.152C36.2082 480.652 37.7891 475.338 42.0096 471.912C43.8693 470.394 44.0177 470.308 45.9289 469.65L45.9237 469.669Z" fill="white" fill-opacity="0.13"/>
<path d="M-1.11289 467.864C-6.89199 476.442 -16.1581 483.721 -26.0102 487.414C-30.5322 489.119 -32.3628 489.203 -34.5857 487.865C-37.0678 486.365 -37.1551 483.415 -34.7758 481.283C-34.296 480.858 -32.4044 479.766 -30.5084 478.852C-24.363 475.848 -12.1327 469.364 -7.99991 466.928C-1.04485 462.814 0.407448 462.074 1.05863 462.374C1.5714 462.606 1.55482 462.862 1.01155 464.149C0.66459 464.975 -0.296615 466.651 -1.11289 467.864Z" fill="white" fill-opacity="0.13"/>
<path d="M189.114 466.133C198.454 467.862 210.528 473.699 217.491 479.849C221.692 483.555 222.749 485.73 221.409 487.806C220.524 489.158 218.639 489.603 217.164 488.79C216.562 488.462 213.03 485.77 209.323 482.834C201.567 476.68 196.371 473.021 190.547 469.642C186.696 467.398 185.777 466.577 186.365 465.94C186.498 465.798 187.738 465.89 189.114 466.133Z" fill="white" fill-opacity="0.13"/>
<path d="M114.554 477.731C115.88 477.543 116.878 477.873 117.635 478.755C118.879 480.196 118.586 482.145 116.993 483.098C114.115 484.793 110.813 481.474 112.794 478.88C113.192 478.37 113.562 477.925 113.599 477.904C113.648 477.875 114.093 477.817 114.549 477.751L114.554 477.731Z" fill="white" fill-opacity="0.13"/>
<path d="M317.782 460.34C310.079 464.787 316.976 476.761 324.691 472.307C332.406 467.852 325.497 455.885 317.782 460.34Z" fill="white" fill-opacity="0.13"/>
<path d="M220.314 457.338C217.235 459.116 219.985 463.907 223.076 462.122C226.167 460.338 223.405 455.554 220.314 457.338Z" fill="white" fill-opacity="0.13"/>
<path d="M299.659 215.338C296.581 217.116 299.331 221.907 302.421 220.122C305.512 218.338 302.75 213.554 299.659 215.338Z" fill="white" fill-opacity="0.13"/>
<path d="M285.028 335.627C281.95 337.405 284.7 342.196 287.791 340.411C290.882 338.627 288.119 333.843 285.028 335.627Z" fill="white" fill-opacity="0.13"/>
<path d="M325.362 235.674C322.284 237.451 325.034 242.243 328.125 240.458C331.216 238.674 328.453 233.889 325.362 235.674Z" fill="white" fill-opacity="0.13"/>
<path d="M165.317 482.395C162.239 484.172 164.989 488.964 168.08 487.179C171.171 485.394 168.408 480.61 165.317 482.395Z" fill="white" fill-opacity="0.13"/>
<path d="M18.0304 463.703C14.9518 465.481 17.7016 470.272 20.7926 468.488C23.8835 466.703 21.1213 461.919 18.0304 463.703Z" fill="white" fill-opacity="0.13"/>
<path d="M305.207 271.01C298.271 275.014 304.475 285.789 311.423 281.777C318.372 277.766 312.155 266.998 305.207 271.01Z" fill="white" fill-opacity="0.13"/>
<path d="M304.074 229.586C297.138 233.59 303.342 244.365 310.291 240.353C317.239 236.342 311.022 225.574 304.074 229.586Z" fill="white" fill-opacity="0.13"/>
<path d="M4.72231 495.303C-2.21375 499.307 3.9906 510.082 10.939 506.07C17.8875 502.059 11.6707 491.291 4.72231 495.303Z" fill="white" fill-opacity="0.13"/>
<path d="M346.127 276.502C342.282 278.722 345.724 284.713 349.581 282.486C353.439 280.259 349.984 274.275 346.127 276.502Z" fill="white" fill-opacity="0.13"/>
<path d="M267.031 409.528C263.186 411.748 266.628 417.738 270.486 415.511C274.343 413.284 270.889 407.301 267.031 409.528Z" fill="white" fill-opacity="0.13"/>
<path d="M164.197 480.454C158.04 484.009 163.552 493.585 169.721 490.023C175.891 486.461 170.366 476.892 164.197 480.454Z" fill="white" fill-opacity="0.13"/>
</g>
<defs>
<clipPath id="clip0_449_6048">
<rect width="343" height="495" rx="10" fill="white"/>
</clipPath>
</defs>
</svg>
