<svg width="122" height="131" viewBox="0 0 122 131" fill="none" xmlns="http://www.w3.org/2000/svg">
<g clip-path="url(#clip0_449_2463)">
<path fill-rule="evenodd" clip-rule="evenodd" d="M83.2772 49.8739C84.0764 44.4529 85.0088 38.7607 85.4084 33.3397C85.6748 29.2739 86.0744 28.0541 83.9432 25.3436C80.2135 20.4647 65.5613 1.21987 62.4976 0.135662C60.1 -0.677498 58.2351 2.43961 56.7699 3.52383C53.1735 6.23436 51.9746 8.80936 49.7102 10.7067L43.3165 18.1607C40.2528 22.2265 36.6564 25.6147 36.6564 30.2226L37.8552 45.8081C37.8552 47.0279 37.8552 46.0792 37.722 46.7568L37.4556 47.4344C34.7915 43.6397 32.3939 42.691 30.5291 40.5226C28.7974 38.4897 28.1314 38.4897 25.867 36.1857C24.9346 35.237 24.535 35.1015 23.4693 34.1528C16.676 27.7831 18.5409 30.4936 9.74951 44.0463C6.81905 48.5187 4.15501 52.72 1.75737 57.7345C-1.8391 64.7818 0.82495 67.2213 3.08939 74.5398L13.6124 108.015C14.8112 111.539 16.01 112.352 18.4077 114.249C21.3381 116.553 34.5251 128.073 37.5888 127.124C40.1196 126.311 43.9825 115.875 44.9149 112.487C47.4458 115.74 49.577 119.128 51.9746 122.381C61.2988 134.714 61.1656 132.952 69.0245 122.516C71.1558 119.67 73.6866 115.74 76.0843 113.165C77.1499 114.52 79.4143 119.941 80.6131 121.974C82.3448 125.227 83.2772 128.615 87.8061 126.175C90.8697 124.549 100.061 117.637 102.858 115.333C106.321 112.623 106.454 112.487 108.319 107.337C112.049 96.9016 118.576 78.199 121.373 67.7634C122.705 62.7489 121.773 62.0713 119.775 58.0055C118.043 54.4818 107.52 35.237 104.59 33.7463C100.194 31.4423 95.2654 39.8449 90.0705 44.1818L84.8756 48.9252C84.3428 49.1963 83.9432 49.3318 83.2772 49.8739ZM47.579 107.744C46.6465 102.865 46.5133 93.7845 46.1137 88.3635C45.5809 81.7227 45.1813 75.2174 44.5153 68.5766C43.4497 56.2437 41.8513 40.5226 41.9845 28.3252C43.7161 26.2923 45.0481 24.3949 46.7797 22.4975C47.3126 21.9554 47.579 21.6844 48.1118 21.1423C50.909 17.7541 59.1676 6.36988 61.1656 5.4212L71.1558 16.941C72.7542 18.9739 74.4858 20.7357 75.9511 22.7686C77.0167 24.2594 80.0803 27.3765 80.6131 28.5962C80.2135 33.8818 74.4858 106.524 73.5534 108.421C73.1538 109.099 72.621 109.641 72.0882 110.454C71.5554 111.132 71.1558 111.81 70.623 112.487C68.4917 115.333 62.8972 123.465 61.1656 125.091C58.9012 122.923 56.9031 119.67 54.6387 116.689C53.0403 115.062 48.1118 109.099 47.579 107.744ZM19.0737 37.2699C20.5389 38.0831 27.5986 44.995 29.0638 46.6213C30.3959 48.1121 38.388 55.0239 38.7876 56.2437C39.5868 57.0568 39.3204 57.7345 39.5868 60.3095C40.386 71.2871 42.3841 88.9056 43.5829 100.019C44.1157 105.033 41.4517 108.557 38.9208 114.385C38.2548 116.146 36.9228 119.806 35.8572 121.296L19.6065 109.099C17.8748 107.879 16.4096 100.967 15.6104 98.528C14.4116 94.7332 13.2128 90.9385 12.0139 87.1437C9.6163 80.0964 6.95226 71.4226 5.22063 64.1042C5.08742 62.3424 10.6819 52.991 11.8807 50.8226C13.0796 48.6542 14.2784 46.3502 15.4772 44.1818C16.676 41.8778 17.7416 39.1673 19.0737 37.2699ZM103.524 108.015C101.259 110.454 91.5357 116.824 87.6729 120.212C86.6072 121.161 86.2076 121.974 85.2752 120.89C84.2096 117.908 77.2831 106.253 77.6827 103.271C77.9491 101.916 77.8159 102.458 78.2155 101.645C77.6827 98.9345 79.9471 83.349 80.3467 79.2832L82.6112 57.7345C82.6112 57.5989 82.7444 57.4634 82.7444 57.4634C82.7444 57.4634 82.8776 57.3279 82.8776 57.1924C83.9432 55.9726 84.2096 55.9726 85.142 55.1595L92.3349 48.1121C94.0666 46.4858 100.86 39.7094 102.192 39.1673C102.458 38.4897 101.792 38.6252 102.592 38.6252C104.19 40.9292 117.111 63.4266 117.244 64.2397C114.979 71.1516 112.715 78.8766 110.184 86.195C107.92 93.2424 105.256 100.832 103.524 108.015Z" fill="#FFEFC2"/>
<path fill-rule="evenodd" clip-rule="evenodd" d="M51.4453 37.9467C51.9781 48.7889 52.2445 59.7665 52.6441 70.6086C53.0437 81.1797 53.0437 93.106 54.2426 103.271L60.3699 112.08L61.3023 111.131C61.5687 110.86 61.5687 110.725 61.8351 110.453C67.4296 102.728 67.1632 104.761 67.5628 97.5784C68.6284 78.1981 69.4276 56.2428 71.0261 37.6757C69.1612 36.0494 67.696 33.7454 66.2308 32.1191C64.7655 30.6283 65.0319 31.0349 63.8331 29.273C63.1671 28.1888 62.1015 27.5112 61.3023 26.5625C60.6363 28.5954 60.7695 27.2401 58.9046 29.6796L51.4453 37.9467Z" fill="#915AE3"/>
<path fill-rule="evenodd" clip-rule="evenodd" d="M14.9453 70.3388C16.1441 71.9651 18.9414 83.7559 19.8738 87.0085C20.673 89.7191 21.6054 92.4296 22.4046 95.1401C23.0707 97.5796 23.7367 101.645 25.0687 103.136L33.4604 110.726C39.5877 98.5283 37.3233 96.6309 35.4585 83.0783C35.1921 80.7743 33.4604 69.3901 33.5936 67.8993C33.86 64.7822 38.1225 60.1743 38.7885 56.1085C38.3889 54.8888 30.53 47.9769 29.0648 46.4861C27.5995 44.8598 20.5398 37.9479 19.0746 37.1348C19.8738 39.1677 22.4046 53.5335 22.5378 55.8374C22.671 58.819 18.8082 64.1046 17.343 67.0861C15.2117 71.1519 16.4105 69.7967 14.9453 70.3388Z" fill="#2792EC"/>
<path fill-rule="evenodd" clip-rule="evenodd" d="M71.0217 37.8115C69.4233 56.3786 68.6241 78.4695 67.5585 97.7143C67.1589 104.897 67.2921 102.864 61.8308 110.589C61.5644 110.86 61.5644 110.996 61.298 111.267L60.3655 112.216L54.2382 103.406C52.773 103.542 51.9738 104.626 50.775 105.439C49.7094 106.252 48.5105 107.472 47.5781 107.743C48.1109 109.098 53.0394 115.062 54.3714 116.688C56.6359 119.534 58.6339 122.787 60.8984 125.091C62.63 123.464 68.2245 115.333 70.3557 112.487C70.8885 111.809 71.4213 111.131 71.8209 110.454C72.3538 109.776 73.0198 109.098 73.2862 108.421C74.2186 106.523 80.0795 33.7457 80.3459 28.5957C77.5486 30.4931 73.2862 36.9983 71.0217 37.8115Z" fill="#4F2BC1"/>
<path fill-rule="evenodd" clip-rule="evenodd" d="M88.2069 68.17C88.7397 73.7266 83.4116 98.9346 84.4772 101.51C85.0101 102.865 85.5429 104.22 86.2089 105.711C86.7417 107.066 87.1413 109.235 88.3401 109.912C89.9385 108.692 91.4038 107.608 92.7358 106.524C94.201 105.44 95.6662 103.814 97.2647 103.407L106.456 70.745C106.322 68.0345 100.062 62.3424 99.6623 58.4121C97.2647 61.6647 94.867 63.1555 91.1374 66.0016C90.2049 66.9503 89.5389 67.7634 88.2069 68.17Z" fill="#35D251"/>
<path fill-rule="evenodd" clip-rule="evenodd" d="M47.5789 107.744C48.5113 107.337 49.8433 106.118 50.7757 105.44C51.8414 104.627 52.7738 103.543 54.239 103.407C53.0402 93.2426 53.0402 81.1808 52.6406 70.7452C52.241 59.7676 51.9746 48.9255 51.4417 38.0833C50.7757 37.4057 49.9765 36.7281 49.1773 35.7794C48.1117 34.6952 47.9785 34.5596 46.7797 33.3399C44.9148 31.578 44.382 29.5452 41.9844 28.4609C41.8512 40.5228 43.4496 56.3794 44.5152 68.7123C45.048 75.3531 45.5808 81.8584 46.1137 88.4992C46.6465 93.7848 46.6465 102.865 47.5789 107.744Z" fill="#6239D2"/>
<path fill-rule="evenodd" clip-rule="evenodd" d="M25.0664 103.273C23.6011 103.408 22.8019 104.628 21.7363 105.577C20.2711 106.932 19.4719 106.661 19.7383 108.965L35.9889 121.162C36.9214 119.807 38.2534 116.012 39.0526 114.25C41.4502 108.423 44.2475 105.034 43.7147 99.8845C42.3827 88.7713 40.3846 71.1528 39.7186 60.1752C39.5854 57.6002 39.8518 56.9225 38.9194 56.1094C38.2534 60.0396 33.9909 64.6475 33.7245 67.9002C33.5913 69.391 35.3229 80.6397 35.5893 83.0792C37.4542 96.6318 39.7186 98.6647 33.5913 110.727L25.0664 103.273Z" fill="#0A61CE"/>
<path fill-rule="evenodd" clip-rule="evenodd" d="M42.1172 28.4614C44.5148 29.6811 45.0476 31.5785 46.9125 33.3404C48.1113 34.5601 48.2445 34.5601 49.3101 35.7798C50.1093 36.593 50.9085 37.4061 51.5746 38.0838L59.0339 30.2232C60.8987 27.6482 60.7655 29.139 61.4315 27.1061L61.1651 5.42188C59.3003 6.37056 50.9085 17.7548 48.1113 21.143C47.5785 21.6851 47.3121 21.9561 46.7793 22.4982C45.1808 24.5311 43.7156 26.4285 42.1172 28.4614Z" fill="#BF8BFD"/>
<path fill-rule="evenodd" clip-rule="evenodd" d="M19.605 108.965C19.3386 106.661 20.1378 106.932 21.603 105.577C22.6686 104.492 23.4679 103.408 24.9331 103.273C23.6011 101.782 22.935 97.7161 22.269 95.2766C21.4698 92.4305 20.5374 89.72 19.7382 87.145C18.8058 83.8924 16.0085 72.1015 14.8097 70.4752C13.4777 69.391 6.41796 64.6476 5.08594 64.1055C6.95077 71.4239 9.48161 80.0976 11.8793 87.145C13.2113 90.9397 14.2769 94.7345 15.4757 98.5292C16.4081 100.833 18.0066 107.745 19.605 108.965Z" fill="#0F6CD5"/>
<path fill-rule="evenodd" clip-rule="evenodd" d="M106.589 70.8803L97.3984 103.542C98.5973 104.355 99.1301 105.033 100.329 105.982C100.995 106.524 101.261 106.795 101.794 107.201C102.86 108.015 102.327 107.879 103.659 108.15C105.391 100.967 108.055 93.2422 110.319 86.3303C112.717 79.0119 114.981 71.4224 117.379 64.375L106.589 70.8803Z" fill="#0D8A42"/>
<path fill-rule="evenodd" clip-rule="evenodd" d="M61.3016 26.8343C62.234 27.6475 63.1664 28.4606 63.8324 29.5448C65.0312 31.3067 64.7648 30.7646 66.23 32.3909C67.6953 34.0172 69.1605 36.3212 71.0253 37.9475C73.1566 37.1343 77.5522 30.6291 80.4827 28.7317C79.9499 27.6475 76.8862 24.3948 75.8206 22.904C74.3554 20.8711 72.6238 19.1093 71.0253 17.0764L61.0352 5.55664L61.3016 26.8343Z" fill="#8651DD"/>
<path fill-rule="evenodd" clip-rule="evenodd" d="M5.22109 63.9683C6.55311 64.5104 13.6128 69.2538 14.9449 70.338C16.4101 69.7959 15.2113 71.1512 17.3425 67.2209C18.9409 64.2393 22.6706 58.9538 22.5374 55.9722C22.4042 53.5327 19.8733 39.3024 19.0741 37.2695C17.7421 39.1669 16.6765 41.8774 15.4777 43.9103C14.2788 46.2143 13.08 48.3827 11.8812 50.5511C10.6824 52.8551 5.08789 62.2064 5.22109 63.9683Z" fill="#45CAFE"/>
<path fill-rule="evenodd" clip-rule="evenodd" d="M99.7933 58.5479C100.193 62.4782 106.453 68.0348 106.587 70.8809L117.243 64.3756C117.11 63.5624 104.189 40.9295 102.591 38.7611C101.791 38.7611 102.324 38.6255 102.191 39.3032C102.724 40.2519 99.6601 55.7019 99.7933 58.5479Z" fill="#27B348"/>
<path fill-rule="evenodd" clip-rule="evenodd" d="M82.8789 57.193C82.8789 59.3614 87.2746 66.0022 88.3402 68.1707C89.6722 67.7641 90.3382 66.9509 91.4039 66.1378C95.1335 63.2917 97.398 61.8009 99.9288 58.5483C99.7956 55.7022 102.992 40.2522 102.326 39.168C101.128 39.7101 94.2011 46.4864 92.4695 48.1127L85.2765 55.1601C84.2109 55.9733 83.9445 55.9733 82.8789 57.193Z" fill="#56E95B"/>
<path fill-rule="evenodd" clip-rule="evenodd" d="M78.2191 101.781C78.4855 103.272 78.2191 103.001 78.0859 104.491C80.2172 103.678 81.8156 101.916 84.4796 101.645C83.2808 99.0703 88.7421 73.8624 88.2093 68.3058C87.1437 66.1374 82.748 59.4966 82.748 57.3281C82.748 57.4637 82.6148 57.4637 82.6148 57.5992C82.6148 57.5992 82.4816 57.7347 82.4816 57.8702L80.2172 79.419C79.9508 83.3492 77.8195 99.0703 78.2191 101.781Z" fill="#1AAE49"/>
<path fill-rule="evenodd" clip-rule="evenodd" d="M88.3406 109.912C87.275 111.81 87.0086 115.469 86.4758 118.044C86.0762 120.483 86.0762 120.077 85.4102 120.754C86.3426 121.839 86.609 121.025 87.8078 120.077C91.8039 116.824 101.394 110.454 103.659 107.879C102.46 107.608 102.993 107.744 101.794 106.931C101.128 106.524 100.995 106.389 100.329 105.711C99.2632 104.762 98.5972 104.22 97.3984 103.271C95.7999 103.678 94.2015 105.304 92.8695 106.389C91.2711 107.608 89.8058 108.693 88.3406 109.912Z" fill="#09763B"/>
<path fill-rule="evenodd" clip-rule="evenodd" d="M85.2762 120.889C85.9422 120.212 85.9422 120.618 86.3418 118.179C86.7414 115.468 87.141 111.945 88.2066 110.047C87.141 109.505 86.7414 107.201 86.0754 105.846C85.4094 104.22 84.8766 103 84.3438 101.645C81.6797 101.916 80.0813 103.677 77.9501 104.491C78.0833 102.864 78.3497 103.271 78.0833 101.78C77.5505 102.458 77.6837 102.051 77.5505 103.406C77.284 106.252 84.2106 117.908 85.2762 120.889Z" fill="#0E9042"/>
</g>
<defs>
<clipPath id="clip0_449_2463">
<rect width="122" height="131" fill="white"/>
</clipPath>
</defs>
</svg>
