<svg width="133" height="28" viewBox="0 0 133 28" fill="none" xmlns="http://www.w3.org/2000/svg">
<g clip-path="url(#clip0_264_1382)">
<path d="M40.418 6.72315V21.1979H43.6815V9.62858H51.4713V21.1979H54.761V6.72315H40.418ZM60.4714 13.9736C60.4714 10.9896 62.603 9.18312 65.3399 9.18312C68.0774 9.18312 70.2084 10.9896 70.2084 13.9736C70.2084 16.9575 68.0774 18.7636 65.3399 18.7636C62.603 18.7636 60.4714 16.9575 60.4714 13.9736ZM73.4977 13.9736C73.4977 9.41888 69.7608 6.38262 65.3399 6.38262C60.919 6.38262 57.1822 9.41888 57.1822 13.9736C57.1822 18.5281 60.919 21.5645 65.3399 21.5645C69.7608 21.5645 73.4977 18.5281 73.4977 13.9736ZM79.4719 6.72315L77.5244 17.0884C77.3668 17.8735 76.8662 18.2138 76.1033 18.2138H74.5246V21.1979H76.2609C78.6561 21.1979 80.2613 20.0723 80.7348 17.5073L82.2091 9.65431H87.7877V21.1979H91.0776V6.72315H79.4719ZM94.2353 6.72315V21.1979H97.4729V15.073H99.6833C100.183 19.2348 103.525 21.5645 107.578 21.5645C111.973 21.5645 115.526 18.8159 115.526 13.9736C115.526 9.13127 111.973 6.38262 107.578 6.38262C103.763 6.38262 100.578 8.4507 99.8147 12.141H97.4729V6.72315H94.2353ZM102.894 13.9736C102.894 10.9896 104.5 9.18312 107.578 9.18312C110.658 9.18312 112.263 10.9896 112.263 13.9736C112.263 16.9575 110.658 18.7636 107.578 18.7636C104.5 18.7636 102.894 16.9575 102.894 13.9736ZM133 10.2568C131.5 7.71746 129.027 6.38262 125.632 6.38262C121.052 6.38262 117.499 9.28846 117.499 13.9736C117.499 18.659 120.974 21.5645 125.632 21.5645C129.027 21.5645 131.5 20.2296 133 17.6907L130.448 16.2247C129.342 17.7953 127.895 18.659 125.579 18.659C122.737 18.659 120.763 16.7744 120.763 13.9736C120.763 11.1204 122.658 9.28846 125.579 9.28846C127.895 9.28846 129.342 10.1521 130.448 11.7224L133 10.2568Z" fill="white"/>
<path fill-rule="evenodd" clip-rule="evenodd" d="M16.9322 0.424698L15.2121 10.7041C15.1715 10.9487 14.9067 11.0588 14.6755 10.9694L9.50552 8.98273C8.86552 8.73678 8.65152 8.25865 8.73952 7.73034L9.84052 1.15203C9.92926 0.624846 10.2869 0.241188 10.9733 0.214643L16.511 0.000331879C16.7591 -0.00873947 16.9735 0.180483 16.9322 0.424698ZM2.09054 7.82555L11.3988 12.6091C11.6198 12.7227 11.6443 13.0072 11.4879 13.1987L7.99947 17.4826C7.56768 18.0128 7.04497 18.0687 6.56679 17.8231L0.609656 14.7621C0.131852 14.5161 -0.124568 14.0598 0.0602637 13.4022L1.55539 8.09407C1.62223 7.85573 1.86955 7.71187 2.09054 7.82555ZM4.58073 24.1108L12.0413 16.7945C12.2189 16.6205 12.498 16.6859 12.6332 16.8934L15.6446 21.5203C16.0175 22.0936 15.9087 22.6056 15.5258 22.9816L10.7512 27.6633C10.368 28.039 9.85218 28.1401 9.28087 27.7608L4.67167 24.7001C4.46494 24.5631 4.40391 24.2848 4.58073 24.1108ZM21.01 26.7649L16.2648 17.4736C16.152 17.2527 16.2995 17.0086 16.5388 16.9435L21.8855 15.4935C22.5478 15.314 23.0051 15.5723 23.2488 16.0498L26.2851 21.9951C26.5287 22.4726 26.4692 22.9921 25.9329 23.4186L21.6017 26.8578C21.4073 27.0119 21.1221 26.9854 21.01 26.7649ZM28.5656 12.1752L18.2042 13.7227C17.9579 13.759 17.7713 13.5428 17.7848 13.2965L18.0883 7.79211C18.126 7.11087 18.5168 6.76071 19.0491 6.68113L25.6791 5.69139C26.2113 5.61147 26.6883 5.832 26.9258 6.47253L28.841 11.6455C28.9265 11.8774 28.8118 12.1386 28.5656 12.1752Z" fill="white"/>
</g>
<defs>
<clipPath id="clip0_264_1382">
<rect width="133" height="28" fill="white"/>
</clipPath>
</defs>
</svg>
