<svg width="95" height="36" viewBox="0 0 95 36" fill="none" xmlns="http://www.w3.org/2000/svg">
<g clip-path="url(#clip0_264_1388)">
<path d="M35.6487 20.8852H36.294V21.6568H37.5977V20.8852H38.243C39.6626 20.8694 40.5792 20.0978 40.5792 18.9198V18.8849C40.5792 17.6942 39.6626 16.9258 38.243 16.9258H37.5977V16.2559H36.294V16.9258H35.6487C34.2523 16.9258 33.3125 17.7133 33.3125 18.8849V18.9198C33.3125 20.0819 34.2523 20.8725 35.6487 20.8852ZM38.1537 17.9514C38.6831 17.9514 39.249 18.1991 39.249 18.8912V18.9198C39.249 19.5072 38.8353 19.8597 38.1404 19.8597H37.6011V17.9482H38.157L38.1537 17.9514ZM36.294 19.8597H35.7612C35.2251 19.8597 34.6527 19.612 34.6527 18.9198V18.8912C34.6527 18.1991 35.2185 17.9514 35.748 17.9514H36.294V19.8628V19.8597Z" fill="white"/>
<path d="M44.2024 21.7679C46.0291 21.7679 47.1608 20.7296 47.1608 19.0595V19.0151C47.1608 17.3449 46.0257 16.3066 44.2024 16.3066C42.3792 16.3066 41.2441 17.3449 41.2441 19.0151V19.0595C41.2441 20.7296 42.3792 21.7679 44.2024 21.7679ZM45.8206 19.0595C45.8206 20.1422 45.2779 20.6915 44.2024 20.6915C43.127 20.6915 42.5843 20.1422 42.5843 19.0595V19.0151C42.5843 17.9323 43.127 17.383 44.2024 17.383C45.2779 17.383 45.8206 17.9323 45.8206 19.0151V19.0595Z" fill="white"/>
<path d="M49.3388 19.5225H52.0059V21.6563H53.303V16.4141H52.0059V18.4398H49.3388V16.4141H48.0449V21.6563H49.3388V19.5225Z" fill="white"/>
<path d="M55.1392 21.6575H58.9446V22.6767H60.1723V20.5716H59.5038V16.4121H54.934V16.4851C54.934 18.2569 54.8215 19.5555 54.5833 20.5716H53.9082V22.6767H55.1359V21.6575H55.1392ZM58.2001 17.5012V20.5779H55.887C56.0988 19.7143 56.2179 18.6284 56.2312 17.5012H58.2001Z" fill="white"/>
<path d="M33.4609 28.8672H34.7647V24.7077H37.4087V28.8672H38.7058V23.625H33.4609V28.8672Z" fill="white"/>
<path d="M42.5413 23.5137C40.7147 23.5137 39.583 24.5519 39.583 26.2221V26.2665C39.583 27.9367 40.718 28.975 42.5413 28.975C44.3646 28.975 45.4996 27.9367 45.4996 26.2665V26.2221C45.4996 24.5519 44.3646 23.5137 42.5413 23.5137ZM40.9232 26.2221C40.9232 25.1394 41.4659 24.5901 42.5413 24.5901C43.6168 24.5901 44.1594 25.1394 44.1594 26.2221V26.2665C44.1594 27.3493 43.6168 27.8986 42.5413 27.8986C41.4659 27.8986 40.9232 27.3493 40.9232 26.2665V26.2221Z" fill="white"/>
<path d="M45.7812 24.6506H47.8825V28.8672H49.1797V24.6506H51.2842V23.625H45.7812V24.6506Z" fill="white"/>
<path d="M54.4504 23.5083C53.4775 23.5083 52.6966 23.7655 52.2531 24.2322C51.9454 24.5561 51.8097 24.9657 51.856 25.4515L51.8627 25.5182H53.1929L53.183 25.4356C53.1532 25.2165 53.2028 25.0324 53.3286 24.8959C53.5933 24.6069 54.1261 24.5625 54.4206 24.5625C55.1386 24.5625 55.539 24.8641 55.5457 25.4166L55.5523 25.75L53.729 25.7563C52.4087 25.7627 51.6807 26.3151 51.6807 27.3058V27.3407C51.6807 28.3473 52.4087 28.9728 53.5768 28.9728C54.3742 28.9728 55.0923 28.7187 55.5423 28.2806V28.8616H56.8693L56.8759 25.4229C56.8759 24.1656 56.0354 23.502 54.447 23.502L54.4504 23.5083ZM53.9639 27.9599C53.3551 27.9599 53.0076 27.7186 53.0076 27.2963V27.2804C53.0076 26.8613 53.2657 26.6835 53.8746 26.6835H55.5523V27.1947C55.2313 27.709 54.7118 27.9567 53.9639 27.9567V27.9599Z" fill="white"/>
<path d="M61.8633 25.6476H59.1995V23.625H57.9023V28.8672H59.1995V26.7335H61.8633V28.8672H63.1605V23.625H61.8633V25.6476Z" fill="white"/>
<path d="M65.4935 27.1145V23.625H64.2129V28.8672H65.563L68.2301 25.3745V28.8672H69.5339V23.625H68.1606L65.4935 27.1145Z" fill="white"/>
<path d="M74.5531 25.6476H71.886V23.625H70.5889V28.8672H71.886V26.7335H74.5531V28.8672H75.8503V23.625H74.5531V25.6476Z" fill="white"/>
<path d="M79.5402 23.5083C78.5673 23.5083 77.7864 23.7655 77.343 24.2322C77.0352 24.5561 76.8996 24.9657 76.9459 25.4515L76.9525 25.5182H78.2828L78.2728 25.4356C78.243 25.2165 78.2927 25.0324 78.4184 24.8959C78.6831 24.6069 79.2159 24.5625 79.5104 24.5625C80.2285 24.5625 80.6289 24.8641 80.6355 25.4166L80.6421 25.75L78.8188 25.7563C77.4985 25.7627 76.7705 26.3151 76.7705 27.3058V27.3407C76.7705 28.3473 77.4985 28.9728 78.6666 28.9728C79.4641 28.9728 80.1822 28.7187 80.6322 28.2806V28.8616H81.9591L81.9657 25.4229C81.9657 24.1656 81.1252 23.502 79.5369 23.502L79.5402 23.5083ZM79.0538 27.9599C78.4449 27.9599 78.0974 27.7186 78.0974 27.2963V27.2804C78.0974 26.8613 78.3556 26.6835 78.9644 26.6835H80.6421V27.1947C80.3211 27.709 79.8016 27.9567 79.0538 27.9567V27.9599Z" fill="white"/>
<path d="M36.949 33.8078C36.949 34.789 36.2839 35.4367 35.1654 35.4367C34.047 35.4367 33.3818 34.789 33.3818 33.8078V33.7792C33.3818 32.7981 34.047 32.1504 35.1654 32.1504C36.2839 32.1504 36.949 32.7981 36.949 33.7792V33.8078ZM35.1654 32.7251C34.4838 32.7251 34.1198 33.068 34.1198 33.7792V33.8078C34.1198 34.5191 34.4871 34.862 35.1654 34.862C35.8438 34.862 36.2111 34.5191 36.2111 33.8078V33.7792C36.2111 33.068 35.8438 32.7251 35.1654 32.7251Z" fill="white"/>
<path d="M40.215 33.4053C40.2844 32.8243 39.7418 32.7258 39.2719 32.7258C38.5902 32.7258 38.2262 33.0687 38.2262 33.78V33.8086C38.2262 34.5198 38.5935 34.8627 39.2719 34.8627C39.7418 34.8627 40.2844 34.7643 40.215 34.1832H40.9529C41.0323 35.0882 40.2216 35.4406 39.2719 35.4406C38.0806 35.4406 37.4883 34.7929 37.4883 33.8117V33.7832C37.4883 32.802 38.0806 32.1543 39.2719 32.1543C40.2216 32.1543 41.0323 32.5067 40.9529 33.4117H40.215V33.4053Z" fill="white"/>
<path d="M42.3292 32.2168V33.4678H44.0698V32.2168H44.7779V35.3697H44.0698V34.0489H42.3292V35.3697H41.6211V32.2168H42.3292Z" fill="white"/>
<path d="M49.0037 33.8078C49.0037 34.789 48.3386 35.4367 47.2201 35.4367C46.1016 35.4367 45.4365 34.789 45.4365 33.8078V33.7792C45.4365 32.7981 46.1016 32.1504 47.2201 32.1504C48.3386 32.1504 49.0037 32.7981 49.0037 33.7792V33.8078ZM47.2201 32.7251C46.5384 32.7251 46.1744 33.068 46.1744 33.7792V33.8078C46.1744 34.5191 46.5418 34.862 47.2201 34.862C47.8985 34.862 48.2658 34.5191 48.2658 33.8078V33.7792C48.2658 33.068 47.8985 32.7251 47.2201 32.7251Z" fill="white"/>
<path d="M51.4858 32.2168C52.1774 32.2168 52.5745 32.5502 52.5745 32.9693V32.9884C52.5745 33.3884 52.3528 33.5916 51.9921 33.7409C52.4222 33.852 52.6572 34.1282 52.6572 34.5347V34.5474C52.6572 35.0205 52.2502 35.3729 51.4792 35.3729H49.6592V32.22H51.4858V32.2168ZM50.3839 33.5186H51.3733C51.6612 33.5186 51.8465 33.3789 51.8465 33.1312V33.1122C51.8465 32.8455 51.6314 32.7439 51.3865 32.7439H50.3806V33.5186H50.3839ZM50.3839 34.8427H51.3799C51.6976 34.8427 51.9292 34.7156 51.9292 34.4331V34.4204C51.9292 34.0838 51.6612 34.0108 51.37 34.0108H50.3839V34.8427Z" fill="white"/>
<path d="M56.3701 35.3705H55.6421V34.9387C55.3707 35.2689 54.8777 35.4372 54.378 35.4372C53.7526 35.4372 53.2529 35.1324 53.2529 34.4719V34.4497C53.2529 33.8718 53.6666 33.5384 54.474 33.5353H55.6487L55.6454 33.2781C55.6421 32.9097 55.3674 32.7065 54.9042 32.7065C54.4905 32.7065 54.0306 32.8367 54.0934 33.2971H53.3654C53.2893 32.4906 54.0603 32.1445 54.924 32.1445C55.8406 32.1445 56.38 32.5097 56.38 33.2876V35.3673L56.3701 35.3705ZM54.5633 34.0179C54.239 34.0179 53.9809 34.0941 53.9809 34.4307V34.4402C53.9809 34.7323 54.2258 34.8942 54.6196 34.8942C54.9637 34.8942 55.3906 34.8117 55.6487 34.3894V34.0147H54.5633V34.0179Z" fill="white"/>
<path d="M57.8292 32.2168V33.4678H59.5698V32.2168H60.2779V35.3697H59.5698V34.0489H57.8292V35.3697H57.1211V32.2168H57.8292Z" fill="white"/>
<path d="M64.1293 32.2168C64.8209 32.2168 65.218 32.5502 65.218 32.9693V32.9884C65.218 33.3884 64.9963 33.5916 64.6356 33.7409C65.0658 33.852 65.3007 34.1282 65.3007 34.5347V34.5474C65.3007 35.0205 64.8937 35.3729 64.1227 35.3729H62.3027V32.22H64.1293V32.2168ZM63.0274 33.5186H64.0168C64.3047 33.5186 64.49 33.3789 64.49 33.1312V33.1122C64.49 32.8455 64.2749 32.7439 64.0301 32.7439H63.0241V33.5186H63.0274ZM63.0274 34.8427H64.0234C64.3411 34.8427 64.5728 34.7156 64.5728 34.4331V34.4204C64.5728 34.0838 64.3047 34.0108 64.0135 34.0108H63.0274V34.8427Z" fill="white"/>
<path d="M68.6831 35.3697H67.9683V32.8296L67.0352 33.2678V32.6772L68.0411 32.2168H68.6831V35.3697Z" fill="white"/>
<path d="M72.1973 33.2299V34.2492C72.1973 35.0334 71.6116 35.4367 70.8075 35.4367C69.9207 35.4367 69.4045 35.0398 69.4739 34.4333H70.1887C70.1424 34.7096 70.4104 34.8969 70.8274 34.8969C71.1384 34.8969 71.4859 34.7667 71.4859 34.2492V34.0333C71.2244 34.1857 70.8902 34.246 70.5759 34.246C69.9372 34.246 69.3945 33.9348 69.3945 33.2268V33.2141C69.3945 32.5505 70.0001 32.1504 70.7976 32.1504C71.5951 32.1504 72.2006 32.56 72.2006 33.2299H72.1973ZM70.1291 33.2268V33.2395C70.1291 33.63 70.4104 33.7697 70.7479 33.7697C71.016 33.7697 71.284 33.6872 71.4859 33.5189V33.2172C71.4859 32.8299 71.1285 32.6933 70.8108 32.6933C70.4931 32.6933 70.1291 32.8362 70.1291 33.2236V33.2268Z" fill="white"/>
<path d="M75.5821 33.2299V34.2492C75.5821 35.0334 74.9964 35.4367 74.1923 35.4367C73.3054 35.4367 72.7892 35.0398 72.8587 34.4333H73.5735C73.5271 34.7096 73.7952 34.8969 74.2121 34.8969C74.5232 34.8969 74.8706 34.7667 74.8706 34.2492V34.0333C74.6092 34.1857 74.275 34.246 73.9606 34.246C73.322 34.246 72.7793 33.9348 72.7793 33.2268V33.2141C72.7793 32.5505 73.3849 32.1504 74.1823 32.1504C74.9798 32.1504 75.5854 32.56 75.5854 33.2299H75.5821ZM73.5139 33.2268V33.2395C73.5139 33.63 73.7952 33.7697 74.1327 33.7697C74.4007 33.7697 74.6688 33.6872 74.8706 33.5189V33.2172C74.8706 32.8299 74.5132 32.6933 74.1956 32.6933C73.8779 32.6933 73.5139 32.8362 73.5139 33.2236V33.2268Z" fill="white"/>
<path d="M78.9678 33.2299V34.2492C78.9678 35.0334 78.3821 35.4367 77.578 35.4367C76.6912 35.4367 76.175 35.0398 76.2445 34.4333H76.9592C76.9129 34.7096 77.1809 34.8969 77.5979 34.8969C77.9089 34.8969 78.2564 34.7667 78.2564 34.2492V34.0333C77.995 34.1857 77.6607 34.246 77.3464 34.246C76.7077 34.246 76.165 33.9348 76.165 33.2268V33.2141C76.165 32.5505 76.7706 32.1504 77.5681 32.1504C78.3656 32.1504 78.9711 32.56 78.9711 33.2299H78.9678ZM76.8997 33.2268V33.2395C76.8997 33.63 77.1809 33.7697 77.5184 33.7697C77.7865 33.7697 78.0545 33.6872 78.2564 33.5189V33.2172C78.2564 32.8299 77.899 32.6933 77.5813 32.6933C77.2636 32.6933 76.8997 32.8362 76.8997 33.2236V33.2268Z" fill="white"/>
<path d="M83.666 32.2168V32.7629H81.621V35.3697H80.9062V32.2168H83.666Z" fill="white"/>
<path d="M87.5349 33.8078C87.5349 34.789 86.8698 35.4367 85.7514 35.4367C84.6329 35.4367 83.9678 34.789 83.9678 33.8078V33.7792C83.9678 32.7981 84.6329 32.1504 85.7514 32.1504C86.8698 32.1504 87.5349 32.7981 87.5349 33.7792V33.8078ZM85.7514 32.7251C85.0697 32.7251 84.7057 33.068 84.7057 33.7792V33.8078C84.7057 34.5191 85.073 34.862 85.7514 34.862C86.4297 34.862 86.797 34.5191 86.797 33.8078V33.7792C86.797 33.068 86.4297 32.7251 85.7514 32.7251Z" fill="white"/>
<path d="M91.2214 32.2168V34.7887H91.635V36.0016H90.9699V35.3697H88.5245V36.0016H87.8594V34.7887H88.2664C88.4318 34.1092 88.4914 33.2614 88.4914 32.2168H91.2214ZM88.9712 34.7887H90.5066V32.7979H89.1962C89.1929 33.5726 89.1036 34.2743 88.9712 34.7887Z" fill="white"/>
<path d="M92.5542 32.2168L93.4608 34.0012L94.212 32.2168H94.9996L93.7289 34.8077C93.5303 35.2078 93.2722 35.4332 92.7891 35.4332C92.6005 35.4332 92.4317 35.4015 92.3027 35.3507V34.7823C92.4119 34.8395 92.5078 34.8712 92.6534 34.8712C92.852 34.8712 92.9579 34.8046 93.0274 34.6775L93.0935 34.5664L91.7666 32.2168H92.5542Z" fill="white"/>
<path d="M10.1621 12.8027H0L10.7379 35.2892H20.9001L10.1621 12.8027Z" fill="white"/>
<path d="M25.8639 0L12.085 28.8495H22.2471L36.0261 0H25.8639Z" fill="white"/>
</g>
<defs>
<clipPath id="clip0_264_1388">
<rect width="95" height="36" fill="white"/>
</clipPath>
</defs>
</svg>
