<svg width="133" height="29" viewBox="0 0 133 29" fill="none" xmlns="http://www.w3.org/2000/svg">
<g clip-path="url(#clip0_264_4330)">
<path d="M40.418 6.73929V21.2497H43.6815V9.65189H51.4713V21.2497H54.761V6.73929H40.418ZM60.4714 14.0076C60.4714 11.0162 62.603 9.20533 65.3399 9.20533C68.0774 9.20533 70.2084 11.0162 70.2084 14.0076C70.2084 16.9988 68.0774 18.8094 65.3399 18.8094C62.603 18.8094 60.4714 16.9988 60.4714 14.0076ZM73.4977 14.0076C73.4977 9.44167 69.7608 6.39793 65.3399 6.39793C60.919 6.39793 57.1822 9.44167 57.1822 14.0076C57.1822 18.5734 60.919 21.6172 65.3399 21.6172C69.7608 21.6172 73.4977 18.5734 73.4977 14.0076ZM79.4719 6.73929L77.5244 17.1301C77.3668 17.9171 76.8662 18.2583 76.1033 18.2583H74.5246V21.2497H76.2609C78.6561 21.2497 80.2613 20.1213 80.7348 17.55L82.2091 9.67768H87.7877V21.2497H91.0776V6.73929H79.4719ZM94.2353 6.73929V21.2497H97.4729V15.1097H99.6833C100.183 19.2818 103.525 21.6172 107.578 21.6172C111.973 21.6172 115.526 18.8619 115.526 14.0076C115.526 9.15335 111.973 6.39793 107.578 6.39793C103.763 6.39793 100.578 8.4711 99.8147 12.1705H97.4729V6.73929H94.2353ZM102.894 14.0076C102.894 11.0162 104.5 9.20533 107.578 9.20533C110.658 9.20533 112.263 11.0162 112.263 14.0076C112.263 16.9988 110.658 18.8094 107.578 18.8094C104.5 18.8094 102.894 16.9988 102.894 14.0076ZM133 10.2817C131.5 7.73606 129.027 6.39793 125.632 6.39793C121.052 6.39793 117.499 9.31093 117.499 14.0076C117.499 18.7045 120.974 21.6172 125.632 21.6172C129.027 21.6172 131.5 20.279 133 17.7339L130.448 16.2643C129.342 17.8388 127.895 18.7045 125.579 18.7045C122.737 18.7045 120.763 16.8153 120.763 14.0076C120.763 11.1474 122.658 9.31093 125.579 9.31093C127.895 9.31093 129.342 10.1767 130.448 11.7509L133 10.2817Z" fill="#2B2E2D"/>
<path fill-rule="evenodd" clip-rule="evenodd" d="M16.9322 0.425074L15.2121 10.7298C15.1715 10.975 14.9067 11.0854 14.6755 10.9958L9.50552 9.0042C8.86552 8.75764 8.65152 8.27834 8.73952 7.74873L9.84052 1.1542C9.92926 0.625713 10.2869 0.24111 10.9733 0.2145L16.511 -0.000339508C16.7591 -0.00943375 16.9735 0.180256 16.9322 0.425074ZM2.09054 7.84417L11.3988 12.6395C11.6198 12.7534 11.6443 13.0386 11.4879 13.2306L7.99947 17.5251C7.56768 18.0565 7.04497 18.1126 6.56679 17.8664L0.609656 14.7978C0.131852 14.5513 -0.124568 14.0938 0.0602637 13.4346L1.55539 8.11335C1.62223 7.87443 1.86955 7.73021 2.09054 7.84417ZM4.58073 24.1696L12.0413 16.8352C12.2189 16.6608 12.498 16.7264 12.6332 16.9344L15.6446 21.5727C16.0175 22.1474 15.9087 22.6606 15.5258 23.0376L10.7512 27.7308C10.368 28.1075 9.85218 28.2088 9.28087 27.8285L4.67167 24.7603C4.46494 24.623 4.40391 24.344 4.58073 24.1696ZM21.01 26.8302L16.2648 17.516C16.152 17.2946 16.2995 17.0499 16.5388 16.9846L21.8855 15.531C22.5478 15.3511 23.0051 15.61 23.2488 16.0887L26.2851 22.0487C26.5287 22.5273 26.4692 23.0481 25.9329 23.4757L21.6017 26.9234C21.4073 27.0778 21.1221 27.0512 21.01 26.8302ZM28.5656 12.2046L18.2042 13.7558C17.9579 13.7922 17.7713 13.5755 17.7848 13.3286L18.0883 7.81065C18.126 7.12773 18.5168 6.7767 19.0491 6.69693L25.6791 5.70475C26.2113 5.62464 26.6883 5.84571 26.9258 6.48782L28.841 11.6736C28.9265 11.906 28.8118 12.1678 28.5656 12.2046Z" fill="#F9AA24"/>
</g>
<defs>
<clipPath id="clip0_264_4330">
<rect width="133" height="28.069" fill="white"/>
</clipPath>
</defs>
</svg>
