<svg width="91" height="36" viewBox="0 0 91 36" fill="none" xmlns="http://www.w3.org/2000/svg">
<g clip-path="url(#clip0_264_4293)">
<path d="M33.8115 20.6443H34.4235V21.4069H35.66V20.6443H36.272C37.6184 20.6286 38.4878 19.8659 38.4878 18.7015V18.667C38.4878 17.4901 37.6184 16.7306 36.272 16.7306H35.66V16.0684H34.4235V16.7306H33.8115C32.487 16.7306 31.5957 17.5089 31.5957 18.667V18.7015C31.5957 19.8502 32.487 20.6317 33.8115 20.6443ZM36.1873 17.7443C36.6895 17.7443 37.2261 17.9891 37.2261 18.6733V18.7015C37.2261 19.2822 36.8338 19.6305 36.1747 19.6305H35.6632V17.7412H36.1904L36.1873 17.7443ZM34.4235 19.6305H33.9182C33.4097 19.6305 32.8668 19.3857 32.8668 18.7015V18.6733C32.8668 17.9891 33.4035 17.7443 33.9056 17.7443H34.4235V19.6337V19.6305Z" fill="#414042"/>
<path d="M41.9249 21.5173C43.6574 21.5173 44.7307 20.491 44.7307 18.8402V18.7963C44.7307 17.1454 43.6542 16.1191 41.9249 16.1191C40.1956 16.1191 39.1191 17.1454 39.1191 18.7963V18.8402C39.1191 20.491 40.1956 21.5173 41.9249 21.5173ZM43.4597 18.8402C43.4597 19.9104 42.9449 20.4534 41.9249 20.4534C40.9049 20.4534 40.3902 19.9104 40.3902 18.8402V18.7963C40.3902 17.726 40.9049 17.1831 41.9249 17.1831C42.9449 17.1831 43.4597 17.726 43.4597 18.7963V18.8402Z" fill="#414042"/>
<path d="M46.7955 19.2972H49.3251V21.4062H50.5554V16.2246H49.3251V18.227H46.7955V16.2246H45.5684V21.4062H46.7955V19.2972Z" fill="#414042"/>
<path d="M52.2964 21.4074H55.9057V22.4149H57.07V20.3341H56.4361V16.2227H52.1018V16.2948C52.1018 18.0461 51.9951 19.3298 51.7692 20.3341H51.1289V22.4149H52.2933V21.4074H52.2964ZM55.1995 17.2992V20.3403H53.0057C53.2066 19.4867 53.3196 18.4133 53.3321 17.2992H55.1995Z" fill="#414042"/>
<path d="M31.7363 28.5351H32.9729V24.4237H35.4805V28.5351H36.7108V23.3535H31.7363V28.5351Z" fill="#414042"/>
<path d="M40.3488 23.2422C38.6163 23.2422 37.543 24.2685 37.543 25.9193V25.9633C37.543 27.6141 38.6195 28.6404 40.3488 28.6404C42.0781 28.6404 43.1546 27.6141 43.1546 25.9633V25.9193C43.1546 24.2685 42.0781 23.2422 40.3488 23.2422ZM38.8141 25.9193C38.8141 24.8491 39.3288 24.3061 40.3488 24.3061C41.3688 24.3061 41.8835 24.8491 41.8835 25.9193V25.9633C41.8835 27.0335 41.3688 27.5764 40.3488 27.5764C39.3288 27.5764 38.8141 27.0335 38.8141 25.9633V25.9193Z" fill="#414042"/>
<path d="M43.4219 24.3672H45.4148V28.5351H46.6451V24.3672H48.6412V23.3535H43.4219V24.3672Z" fill="#414042"/>
<path d="M51.6445 23.2367C50.7218 23.2367 49.9811 23.491 49.5605 23.9523C49.2687 24.2724 49.14 24.6773 49.1839 25.1575L49.1902 25.2234H50.4519L50.4425 25.1418C50.4142 24.9252 50.4613 24.7432 50.5805 24.6083C50.8316 24.3227 51.3369 24.2787 51.6162 24.2787C52.2973 24.2787 52.677 24.5769 52.6833 25.123L52.6896 25.4525L50.9603 25.4588C49.708 25.4651 49.0176 26.0112 49.0176 26.9904V27.0249C49.0176 28.0198 49.708 28.6381 50.8159 28.6381C51.5723 28.6381 52.2534 28.387 52.6802 27.9539V28.5282H53.9387L53.945 25.1293C53.945 23.8864 53.1478 23.2305 51.6413 23.2305L51.6445 23.2367ZM51.1831 27.6369C50.6057 27.6369 50.2761 27.3984 50.2761 26.981V26.9653C50.2761 26.551 50.5209 26.3752 51.0984 26.3752H52.6896V26.8805C52.3852 27.389 51.8924 27.6338 51.1831 27.6338V27.6369Z" fill="#414042"/>
<path d="M58.6747 25.3527H56.1483V23.3535H54.918V28.5351H56.1483V26.4261H58.6747V28.5351H59.905V23.3535H58.6747V25.3527Z" fill="#414042"/>
<path d="M62.1169 26.8027V23.3535H60.9023V28.5351H62.1828L64.7125 25.0828V28.5351H65.949V23.3535H64.6465L62.1169 26.8027Z" fill="#414042"/>
<path d="M70.7111 25.3527H68.1815V23.3535H66.9512V28.5351H68.1815V26.4261H70.7111V28.5351H71.9414V23.3535H70.7111V25.3527Z" fill="#414042"/>
<path d="M75.4394 23.2367C74.5167 23.2367 73.776 23.491 73.3555 23.9523C73.0636 24.2724 72.9349 24.6773 72.9788 25.1575L72.9851 25.2234H74.2468L74.2374 25.1418C74.2091 24.9252 74.2562 24.7432 74.3755 24.6083C74.6265 24.3227 75.1318 24.2787 75.4112 24.2787C76.0922 24.2787 76.472 24.5769 76.4782 25.123L76.4845 25.4525L74.7552 25.4588C73.503 25.4651 72.8125 26.0112 72.8125 26.9904V27.0249C72.8125 28.0198 73.503 28.6381 74.6108 28.6381C75.3672 28.6381 76.0483 28.387 76.4751 27.9539V28.5282H77.7336L77.7399 25.1293C77.7399 23.8864 76.9427 23.2305 75.4363 23.2305L75.4394 23.2367ZM74.978 27.6369C74.4006 27.6369 74.071 27.3984 74.071 26.981V26.9653C74.071 26.551 74.3158 26.3752 74.8933 26.3752H76.4845V26.8805C76.1801 27.389 75.6873 27.6338 74.978 27.6338V27.6369Z" fill="#414042"/>
<path d="M35.0454 33.4176C35.0454 34.3874 34.4146 35.0276 33.3538 35.0276C32.2929 35.0276 31.6621 34.3874 31.6621 33.4176V33.3893C31.6621 32.4195 32.2929 31.7793 33.3538 31.7793C34.4146 31.7793 35.0454 32.4195 35.0454 33.3893V33.4176ZM33.3538 32.3474C32.7072 32.3474 32.362 32.6863 32.362 33.3893V33.4176C32.362 34.1206 32.7104 34.4596 33.3538 34.4596C33.9971 34.4596 34.3455 34.1206 34.3455 33.4176V33.3893C34.3455 32.6863 33.9971 32.3474 33.3538 32.3474Z" fill="#414042"/>
<path d="M38.1427 33.0198C38.2087 32.4454 37.6939 32.3481 37.2483 32.3481C36.6018 32.3481 36.2565 32.6871 36.2565 33.3901V33.4184C36.2565 34.1214 36.6049 34.4603 37.2483 34.4603C37.6939 34.4603 38.2087 34.363 38.1427 33.7887H38.8426C38.918 34.6832 38.149 35.0315 37.2483 35.0315C36.1184 35.0315 35.5566 34.3913 35.5566 33.4215V33.3932C35.5566 32.4235 36.1184 31.7832 37.2483 31.7832C38.149 31.7832 38.918 32.1316 38.8426 33.026H38.1427V33.0198Z" fill="#414042"/>
<path d="M40.1482 31.8457V33.0823H41.799V31.8457H42.4707V34.9622H41.799V33.6566H40.1482V34.9622H39.4766V31.8457H40.1482Z" fill="#414042"/>
<path d="M46.479 33.4176C46.479 34.3874 45.8482 35.0276 44.7873 35.0276C43.7265 35.0276 43.0957 34.3874 43.0957 33.4176V33.3893C43.0957 32.4195 43.7265 31.7793 44.7873 31.7793C45.8482 31.7793 46.479 32.4195 46.479 33.3893V33.4176ZM44.7873 32.3474C44.1408 32.3474 43.7956 32.6863 43.7956 33.3893V33.4176C43.7956 34.1206 44.144 34.4596 44.7873 34.4596C45.4307 34.4596 45.7791 34.1206 45.7791 33.4176V33.3893C45.7791 32.6863 45.4307 32.3474 44.7873 32.3474Z" fill="#414042"/>
<path d="M48.832 31.8457C49.488 31.8457 49.8646 32.1752 49.8646 32.5895V32.6084C49.8646 33.0038 49.6543 33.2047 49.3122 33.3522C49.7202 33.462 49.9431 33.7351 49.9431 34.1368V34.1493C49.9431 34.617 49.557 34.9654 48.8258 34.9654H47.0996V31.8488H48.832V31.8457ZM47.7869 33.1325H48.7253C48.9984 33.1325 49.1741 32.9944 49.1741 32.7496V32.7308C49.1741 32.4671 48.9701 32.3667 48.7379 32.3667H47.7838V33.1325H47.7869ZM47.7869 34.4412H48.7316C49.0329 34.4412 49.2526 34.3157 49.2526 34.0364V34.0238C49.2526 33.6911 48.9984 33.6189 48.7222 33.6189H47.7869V34.4412Z" fill="#414042"/>
<path d="M53.4643 34.9621H52.7738V34.5353C52.5164 34.8617 52.0488 35.028 51.5749 35.028C50.9817 35.028 50.5078 34.7267 50.5078 34.0739V34.052C50.5078 33.4808 50.9001 33.1512 51.6659 33.1481H52.7801L52.7769 32.8939C52.7738 32.5298 52.5133 32.3289 52.0739 32.3289C51.6816 32.3289 51.2454 32.4576 51.305 32.9127H50.6145C50.5423 32.1155 51.2736 31.7734 52.0927 31.7734C52.9621 31.7734 53.4737 32.1344 53.4737 32.9033V34.959L53.4643 34.9621ZM51.7507 33.6251C51.4431 33.6251 51.1983 33.7005 51.1983 34.0331V34.0426C51.1983 34.3313 51.4305 34.4914 51.804 34.4914C52.1304 34.4914 52.5353 34.4098 52.7801 33.9923V33.622H51.7507V33.6251Z" fill="#414042"/>
<path d="M54.8494 31.8457V33.0823H56.5002V31.8457H57.1718V34.9622H56.5002V33.6566H54.8494V34.9622H54.1777V31.8457H54.8494Z" fill="#414042"/>
<path d="M60.8242 31.8457C61.4802 31.8457 61.8568 32.1752 61.8568 32.5895V32.6084C61.8568 33.0038 61.6465 33.2047 61.3044 33.3522C61.7124 33.462 61.9353 33.7351 61.9353 34.1368V34.1493C61.9353 34.617 61.5492 34.9654 60.818 34.9654H59.0918V31.8488H60.8242V31.8457ZM59.7791 33.1325H60.7175C60.9906 33.1325 61.1663 32.9944 61.1663 32.7496V32.7308C61.1663 32.4671 60.9623 32.3667 60.7301 32.3667H59.776V33.1325H59.7791ZM59.7791 34.4412H60.7238C61.0251 34.4412 61.2448 34.3157 61.2448 34.0364V34.0238C61.2448 33.6911 60.9906 33.6189 60.7144 33.6189H59.7791V34.4412Z" fill="#414042"/>
<path d="M65.143 34.9622H64.4651V32.4514L63.5801 32.8845V32.3008L64.5342 31.8457H65.143V34.9622Z" fill="#414042"/>
<path d="M68.4766 32.8464V33.8538C68.4766 34.629 67.9211 35.0276 67.1585 35.0276C66.3174 35.0276 65.8278 34.6353 65.8937 34.0359H66.5716C66.5277 34.3089 66.7819 34.4941 67.1773 34.4941C67.4723 34.4941 67.8019 34.3654 67.8019 33.8538V33.6404C67.5539 33.7911 67.237 33.8507 66.9388 33.8507C66.3331 33.8507 65.8184 33.5431 65.8184 32.8432V32.8307C65.8184 32.1747 66.3927 31.7793 67.1491 31.7793C67.9054 31.7793 68.4798 32.1842 68.4798 32.8464H68.4766ZM66.5151 32.8432V32.8558C66.5151 33.2418 66.7819 33.3799 67.102 33.3799C67.3562 33.3799 67.6104 33.2983 67.8019 33.132V32.8338C67.8019 32.4509 67.4629 32.316 67.1616 32.316C66.8603 32.316 66.5151 32.4572 66.5151 32.8401V32.8432Z" fill="#414042"/>
<path d="M71.6876 32.8464V33.8538C71.6876 34.629 71.1321 35.0276 70.3694 35.0276C69.5283 35.0276 69.0387 34.6353 69.1046 34.0359H69.7825C69.7386 34.3089 69.9928 34.4941 70.3883 34.4941C70.6833 34.4941 71.0128 34.3654 71.0128 33.8538V33.6404C70.7649 33.7911 70.4479 33.8507 70.1497 33.8507C69.544 33.8507 69.0293 33.5431 69.0293 32.8432V32.8307C69.0293 32.1747 69.6036 31.7793 70.36 31.7793C71.1164 31.7793 71.6907 32.1842 71.6907 32.8464H71.6876ZM69.726 32.8432V32.8558C69.726 33.2418 69.9928 33.3799 70.3129 33.3799C70.5672 33.3799 70.8214 33.2983 71.0128 33.132V32.8338C71.0128 32.4509 70.6739 32.316 70.3726 32.316C70.0713 32.316 69.726 32.4572 69.726 32.8401V32.8432Z" fill="#414042"/>
<path d="M74.8985 32.8464V33.8538C74.8985 34.629 74.343 35.0276 73.5804 35.0276C72.7393 35.0276 72.2497 34.6353 72.3156 34.0359H72.9935C72.9495 34.3089 73.2037 34.4941 73.5992 34.4941C73.8942 34.4941 74.2238 34.3654 74.2238 33.8538V33.6404C73.9758 33.7911 73.6588 33.8507 73.3607 33.8507C72.7549 33.8507 72.2402 33.5431 72.2402 32.8432V32.8307C72.2402 32.1747 72.8146 31.7793 73.571 31.7793C74.3273 31.7793 74.9017 32.1842 74.9017 32.8464H74.8985ZM72.937 32.8432V32.8558C72.937 33.2418 73.2037 33.3799 73.5239 33.3799C73.7781 33.3799 74.0323 33.2983 74.2238 33.132V32.8338C74.2238 32.4509 73.8848 32.316 73.5835 32.316C73.2822 32.316 72.937 32.4572 72.937 32.8401V32.8432Z" fill="#414042"/>
<path d="M79.3538 31.8457V32.3855H77.4142V34.9622H76.7363V31.8457H79.3538Z" fill="#414042"/>
<path d="M83.0239 33.4176C83.0239 34.3874 82.3931 35.0276 81.3323 35.0276C80.2715 35.0276 79.6406 34.3874 79.6406 33.4176V33.3893C79.6406 32.4195 80.2715 31.7793 81.3323 31.7793C82.3931 31.7793 83.0239 32.4195 83.0239 33.3893V33.4176ZM81.3323 32.3474C80.6857 32.3474 80.3405 32.6863 80.3405 33.3893V33.4176C80.3405 34.1206 80.6889 34.4596 81.3323 34.4596C81.9757 34.4596 82.324 34.1206 82.324 33.4176V33.3893C82.324 32.6863 81.9757 32.3474 81.3323 32.3474Z" fill="#414042"/>
<path d="M86.5188 31.8457V34.3879H86.9111V35.5868H86.2802V34.9622H83.9609V35.5868H83.3301V34.3879H83.7161C83.873 33.7162 83.9295 32.8783 83.9295 31.8457H86.5188ZM84.3846 34.3879H85.8409V32.42H84.598C84.5949 33.1858 84.5101 33.8794 84.3846 34.3879Z" fill="#414042"/>
<path d="M87.7841 31.8457L88.644 33.6095L89.3564 31.8457H90.1034L88.8982 34.4067C88.7099 34.8022 88.4651 35.025 88.0069 35.025C87.828 35.025 87.6679 34.9936 87.5455 34.9434V34.3816C87.6491 34.4381 87.7401 34.4695 87.8782 34.4695C88.0665 34.4695 88.167 34.4036 88.2329 34.278L88.2956 34.1682L87.0371 31.8457H87.7841Z" fill="#414042"/>
<path d="M9.63827 12.6543H0L10.1844 34.881H19.8226L9.63827 12.6543Z" fill="#405153"/>
<path d="M24.5296 0L11.4609 28.5162H21.0992L34.1678 0H24.5296Z" fill="#00B5AC"/>
</g>
<defs>
<clipPath id="clip0_264_4293">
<rect width="90.1026" height="35.5841" fill="white"/>
</clipPath>
</defs>
</svg>
