<svg width="21" height="22" viewBox="0 0 21 22" fill="none" xmlns="http://www.w3.org/2000/svg">
<path d="M1 5.71484H19.8571" stroke="#E64646" stroke-linecap="round" stroke-linejoin="round"/>
<path d="M3.35742 5.71484H17.5003V19.8577C17.5003 20.2745 17.3347 20.6742 17.04 20.9689C16.7453 21.2636 16.3456 21.4291 15.9289 21.4291H4.92885C4.51208 21.4291 4.11238 21.2636 3.81768 20.9689C3.52298 20.6742 3.35742 20.2745 3.35742 19.8577V5.71484Z" stroke="#E64646" stroke-linecap="round" stroke-linejoin="round"/>
<path d="M6.5 5.71429V4.92857C6.5 3.88665 6.9139 2.8874 7.65065 2.15065C8.3874 1.4139 9.38665 1 10.4286 1C11.4705 1 12.4697 1.4139 13.2065 2.15065C13.9432 2.8874 14.3571 3.88665 14.3571 4.92857V5.71429" stroke="#E64646" stroke-linecap="round" stroke-linejoin="round"/>
<path d="M8.07227 8.85742V17.5003" stroke="#E64646" stroke-linecap="round" stroke-linejoin="round"/>
<path d="M12.7852 8.85742V17.5003" stroke="#E64646" stroke-linecap="round" stroke-linejoin="round"/>
</svg>
