<svg width="69" height="66" viewBox="0 0 69 66" fill="none" xmlns="http://www.w3.org/2000/svg">
<path d="M34.8104 37.8824C40.784 37.8824 45.6266 32.8317 45.6266 26.6014C45.6266 20.371 40.784 15.3203 34.8104 15.3203C28.8367 15.3203 23.9941 20.371 23.9941 26.6014C23.9941 32.8317 28.8367 37.8824 34.8104 37.8824Z" stroke="white" stroke-width="2" stroke-linecap="round" stroke-linejoin="round"/>
<path d="M16.3359 55.4819C18.2666 52.1766 20.98 49.4449 24.2154 47.5494C27.4507 45.6538 31.0992 44.6582 34.81 44.6582C38.5209 44.6582 42.1694 45.6538 45.4047 47.5494C48.64 49.4449 51.3535 52.1766 53.2841 55.4819" stroke="white" stroke-width="2" stroke-linecap="round" stroke-linejoin="round"/>
<path d="M34.8116 62.7006C50.343 62.7006 62.9338 49.5687 62.9338 33.3698C62.9338 17.1709 50.343 4.03906 34.8116 4.03906C19.2802 4.03906 6.68945 17.1709 6.68945 33.3698C6.68945 49.5687 19.2802 62.7006 34.8116 62.7006Z" stroke="white" stroke-width="2" stroke-linecap="round" stroke-linejoin="round"/>
</svg>
