<svg width="74" height="79" viewBox="0 0 74 79" fill="none" xmlns="http://www.w3.org/2000/svg">
<g clip-path="url(#clip0_264_2819)">
<path fill-rule="evenodd" clip-rule="evenodd" d="M50.5128 30.0774C50.9976 26.8082 51.5631 23.3756 51.8055 20.1064C51.9671 17.6545 52.2095 16.9189 50.9168 15.2843C48.6545 12.3421 39.7671 0.736425 37.9088 0.0825866C36.4545 -0.407792 35.3234 1.47199 34.4346 2.12583C32.2532 3.76043 31.526 5.31329 30.1525 6.45751L26.2744 10.9526C24.4161 13.4045 22.2346 15.4478 22.2346 18.2266L22.9618 27.6255C22.9618 28.3611 22.9618 27.789 22.881 28.1976L22.7194 28.6063C21.1035 26.3178 19.6492 25.7457 18.518 24.4381C17.4677 23.2121 17.0637 23.2121 15.6902 21.8227C15.1247 21.2506 14.8823 21.1689 14.2359 20.5968C10.1154 16.7555 11.2465 18.3901 5.91405 26.563C4.13656 29.2601 2.52067 31.7937 1.06636 34.8177C-1.1151 39.0677 0.500796 40.5388 1.87431 44.9522L8.2571 65.1395C8.98425 67.2645 9.71141 67.7548 11.1657 68.8991C12.9432 70.2885 20.9419 77.2355 22.8002 76.6634C24.3353 76.173 26.6783 69.8798 27.2439 67.8366C28.779 69.7981 30.0717 71.8413 31.526 73.8028C37.1817 81.2403 37.1009 80.1778 41.8678 73.8846C43.1605 72.1683 44.6956 69.7981 46.1499 68.2452C46.7962 69.0625 48.1698 72.3317 48.8969 73.5577C49.9472 75.5192 50.5128 77.5624 53.2598 76.0913C55.1181 75.1105 60.693 70.9423 62.3896 69.5529C64.4903 67.9183 64.5711 67.8366 65.7022 64.7308C67.9645 58.4376 71.9234 47.1589 73.6201 40.8657C74.4281 37.8417 73.8625 37.4331 72.6506 34.9812C71.6003 32.8562 65.2175 21.2506 63.44 20.3516C60.7737 18.9622 57.7843 24.0294 54.6333 26.6448L51.4823 29.5053C51.1592 29.6688 50.9168 29.7505 50.5128 30.0774ZM28.8598 64.976C28.2942 62.0338 28.2134 56.5579 27.971 53.2887C27.6479 49.2839 27.4055 45.3609 27.0015 41.3561C26.3551 33.9187 25.3856 24.4381 25.4664 17.0824C26.5167 15.8564 27.3247 14.7122 28.375 13.568C28.6982 13.2411 28.8598 13.0776 29.183 12.7507C30.8797 10.7075 35.8889 3.84216 37.1009 3.27005L43.1605 10.2171C44.13 11.443 45.1803 12.5055 46.0691 13.7315C46.7155 14.6305 48.5737 16.5103 48.8969 17.2458C48.6545 20.4333 45.1803 64.2405 44.6148 65.3847C44.3724 65.7933 44.0492 66.1202 43.726 66.6106C43.4029 67.0193 43.1605 67.4279 42.8373 67.8366C41.5446 69.5529 38.1512 74.4567 37.1009 75.4374C35.7273 74.1298 34.5154 72.1682 33.1419 70.3702C32.1724 69.3894 29.183 65.7933 28.8598 64.976ZM11.5697 22.4765C12.4584 22.9669 16.7406 27.1351 17.6293 28.1159C18.4373 29.0149 23.2849 33.1831 23.5273 33.9187C24.0121 34.4091 23.8505 34.8177 24.0121 36.3706C24.4969 42.9907 25.7088 53.6156 26.4359 60.3174C26.7591 63.3414 25.1432 65.4664 23.6081 68.9808C23.2041 70.0433 22.3962 72.25 21.7498 73.149L11.8929 65.7933C10.8425 65.0578 9.95379 60.8895 9.46902 59.4184C8.74187 57.13 8.01472 54.8415 7.28756 52.5531C5.83326 48.3032 4.21736 43.0724 3.16703 38.659C3.08623 37.5966 6.47961 31.9572 7.20677 30.6495C7.93392 29.3418 8.66108 27.9524 9.38823 26.6448C10.1154 25.2554 10.7617 23.6208 11.5697 22.4765ZM62.7936 65.1395C61.4201 66.6106 55.5221 70.4519 53.179 72.4952C52.5327 73.0673 52.2903 73.5576 51.7247 72.9038C51.0784 71.1058 46.877 64.077 47.1194 62.2789C47.281 61.4616 47.2002 61.7886 47.4426 61.2982C47.1194 59.6636 48.4929 50.2647 48.7353 47.8128L50.1088 34.8177C50.1088 34.736 50.1896 34.6543 50.1896 34.6543C50.1896 34.6543 50.2704 34.5726 50.2704 34.4908C50.9168 33.7553 51.0784 33.7553 51.6439 33.2649L56.0069 29.0149C57.0572 28.0342 61.1777 23.9477 61.9857 23.6208C62.1473 23.2121 61.7433 23.2938 62.2281 23.2938C63.1976 24.6833 71.0347 38.2504 71.1155 38.7408C69.742 42.909 68.3685 47.5676 66.8334 51.981C65.4599 56.2309 63.844 60.8078 62.7936 65.1395Z" fill="#FFEFC2"/>
<path fill-rule="evenodd" clip-rule="evenodd" d="M31.2031 22.8848C31.5263 29.4232 31.6879 36.0433 31.9303 42.5817C32.1727 48.9566 32.1727 56.1488 32.8998 62.2786L36.6164 67.591L37.1819 67.0189C37.3435 66.8554 37.3435 66.7737 37.5051 66.6103C40.8985 61.9517 40.7369 63.1776 40.9793 58.8459C41.6257 47.1586 42.1104 33.9184 43.08 22.7214C41.9488 21.7406 41.0601 20.3512 40.1714 19.3705C39.2826 18.4714 39.4442 18.7166 38.717 17.6541C38.3131 17.0003 37.6667 16.5916 37.1819 16.0195C36.778 17.2455 36.8588 16.4282 35.7276 17.8993L31.2031 22.8848Z" fill="#915AE3"/>
<path fill-rule="evenodd" clip-rule="evenodd" d="M9.06445 42.4183C9.79161 43.3991 11.4883 50.5096 12.0539 52.4711C12.5386 54.1057 13.1042 55.7403 13.589 57.3749C13.9929 58.846 14.3969 61.2979 15.2049 62.1969L20.2949 66.7738C24.0115 59.4181 22.638 58.2739 21.5069 50.1009C21.3453 48.7115 20.2949 41.8462 20.3757 40.9472C20.5373 39.0674 23.1228 36.2886 23.5267 33.8367C23.2843 33.1011 18.5174 28.9329 17.6287 28.0339C16.74 27.0531 12.4578 22.8849 11.5691 22.3945C12.0539 23.6205 13.589 32.2838 13.6698 33.6732C13.7506 35.4713 11.4075 38.6588 10.5188 40.4568C9.22604 42.9087 9.9532 42.0914 9.06445 42.4183Z" fill="#2792EC"/>
<path fill-rule="evenodd" clip-rule="evenodd" d="M43.0793 22.8018C42.1097 33.9987 41.625 47.3207 40.9786 58.9263C40.7362 63.258 40.817 62.0321 37.5044 66.6906C37.3428 66.8541 37.3428 66.9358 37.1812 67.0993L36.6157 67.6714L32.8991 62.359C32.0104 62.4407 31.5256 63.0945 30.7984 63.5849C30.1521 64.0753 29.4249 64.8109 28.8594 64.9743C29.1826 65.7916 32.172 69.3877 32.9799 70.3685C34.3534 72.0848 35.5653 74.0463 36.9389 75.4357C37.9892 74.455 41.3826 69.5512 42.6753 67.8349C42.9985 67.4262 43.3217 67.0176 43.564 66.6089C43.8872 66.2003 44.2912 65.7916 44.4528 65.383C45.0183 64.2388 48.5733 20.3499 48.7349 17.2441C47.0382 18.3884 44.4528 22.3114 43.0793 22.8018Z" fill="#4F2BC1"/>
<path fill-rule="evenodd" clip-rule="evenodd" d="M53.5023 41.1092C53.8254 44.4601 50.5937 59.6618 51.24 61.2147C51.5632 62.032 51.8864 62.8493 52.2903 63.7483C52.6135 64.5656 52.8559 65.8733 53.5831 66.2819C54.5526 65.5464 55.4413 64.8925 56.2493 64.2387C57.138 63.5848 58.0268 62.6041 58.9963 62.3589L64.5712 42.662C64.4904 41.0274 60.693 37.5948 60.4506 35.2246C58.9963 37.1861 57.542 38.0852 55.2798 39.8015C54.7142 40.3736 54.3102 40.864 53.5023 41.1092Z" fill="#35D251"/>
<path fill-rule="evenodd" clip-rule="evenodd" d="M28.8591 64.976C29.4246 64.7308 30.2326 63.9952 30.7981 63.5866C31.4445 63.0962 32.0101 62.4424 32.8988 62.3606C32.1717 56.2309 32.1717 48.9569 31.9293 42.6637C31.6869 36.0436 31.5253 29.5053 31.2021 22.9669C30.7981 22.5582 30.3134 22.1496 29.8286 21.5775C29.1822 20.9236 29.1014 20.8419 28.3743 20.1063C27.2432 19.0438 26.92 17.8179 25.4657 17.1641C25.3849 24.438 26.3544 34.0004 27.0008 41.4378C27.324 45.4426 27.6471 49.3656 27.9703 53.3703C28.2935 56.5578 28.2935 62.0337 28.8591 64.976Z" fill="#6239D2"/>
<path fill-rule="evenodd" clip-rule="evenodd" d="M15.2059 62.2779C14.3172 62.3596 13.8324 63.0952 13.1861 63.6673C12.2973 64.4846 11.8126 64.3211 11.9741 65.7105L21.8311 73.0662C22.3967 72.2489 23.2046 69.9605 23.6894 68.898C25.1437 65.3836 26.8404 63.3404 26.5172 60.2346C25.7093 53.5328 24.4973 42.9079 24.0934 36.2878C24.0126 34.735 24.1742 34.3263 23.6086 33.8359C23.2046 36.2061 20.6192 38.9849 20.4576 40.9464C20.3768 41.8455 21.4271 48.629 21.5887 50.1002C22.7199 58.2731 24.0934 59.4991 20.3768 66.773L15.2059 62.2779Z" fill="#0A61CE"/>
<path fill-rule="evenodd" clip-rule="evenodd" d="M25.5469 17.1636C27.0012 17.8992 27.3244 19.0434 28.4555 20.1059C29.1826 20.8414 29.2634 20.8414 29.9098 21.577C30.3946 22.0674 30.8793 22.5578 31.2833 22.9664L35.8078 18.2261C36.9389 16.6732 36.8582 17.5722 37.2621 16.3463L37.1005 3.26953C35.9694 3.84164 30.8793 10.7069 29.1826 12.7502C28.8595 13.0771 28.6979 13.2406 28.3747 13.5675C27.4052 14.7934 26.5164 15.9376 25.5469 17.1636Z" fill="#BF8BFD"/>
<path fill-rule="evenodd" clip-rule="evenodd" d="M11.8926 65.7108C11.731 64.3214 12.2158 64.4848 13.1045 63.6675C13.7509 63.0137 14.2356 62.3598 15.1244 62.2781C14.3164 61.3791 13.9124 58.9272 13.5085 57.4561C13.0237 55.7397 12.4581 54.1051 11.9734 52.5523C11.4078 50.5908 9.71111 43.4803 8.98396 42.4995C8.17601 41.8457 3.89389 38.9851 3.08594 38.6582C4.21707 43.0716 5.75217 48.3023 7.20647 52.5523C8.01442 54.8407 8.66078 57.1291 9.38794 59.4176C9.9535 60.807 10.923 64.9752 11.8926 65.7108Z" fill="#0F6CD5"/>
<path fill-rule="evenodd" clip-rule="evenodd" d="M64.653 42.7453L59.0781 62.4422C59.8053 62.9326 60.1285 63.3412 60.8556 63.9133C61.2596 64.2402 61.4212 64.4037 61.7444 64.6489C62.3907 65.1393 62.0675 65.0575 62.8755 65.221C63.9258 60.8893 65.5417 56.2307 66.9152 52.0625C68.3695 47.6491 69.743 43.0722 71.1974 38.8223L64.653 42.7453Z" fill="#0D8A42"/>
<path fill-rule="evenodd" clip-rule="evenodd" d="M37.1811 16.1831C37.7467 16.6735 38.3122 17.1639 38.7162 17.8177C39.4434 18.8802 39.2818 18.5533 40.1705 19.5341C41.0593 20.5148 41.948 21.9042 43.0791 22.885C44.3719 22.3946 47.0381 18.4716 48.8156 17.3274C48.4924 16.6735 46.6341 14.712 45.9878 13.813C45.099 12.587 44.0487 11.5245 43.0791 10.2986L37.0195 3.35156L37.1811 16.1831Z" fill="#8651DD"/>
<path fill-rule="evenodd" clip-rule="evenodd" d="M3.16743 38.5773C3.97538 38.9042 8.25751 41.7648 9.06546 42.4186C9.9542 42.0917 9.22705 42.909 10.5198 40.5388C11.4893 38.7408 13.7516 35.5533 13.6708 33.7553C13.59 32.2841 12.0549 23.7025 11.5701 22.4766C10.7622 23.6208 10.1158 25.2554 9.38864 26.4813C8.66148 27.8707 7.93433 29.1784 7.20718 30.4861C6.48002 31.8755 3.08664 37.5148 3.16743 38.5773Z" fill="#45CAFE"/>
<path fill-rule="evenodd" clip-rule="evenodd" d="M60.5319 35.3064C60.7742 37.6766 64.5716 41.0275 64.6524 42.7438L71.116 38.8208C71.0352 38.3304 63.1981 24.6815 62.2286 23.3739C61.7438 23.3739 62.067 23.2921 61.9862 23.7008C62.3093 24.2729 60.4511 33.5901 60.5319 35.3064Z" fill="#27B348"/>
<path fill-rule="evenodd" clip-rule="evenodd" d="M50.2715 34.4892C50.2715 35.7969 52.9377 39.8016 53.5841 41.1093C54.392 40.8641 54.796 40.3737 55.4424 39.8834C57.7046 38.167 59.0781 37.268 60.6132 35.3065C60.5324 33.5902 62.4715 24.273 62.0675 23.6191C61.3404 23.9461 57.139 28.0325 56.0887 29.0133L51.7258 33.2633C51.0794 33.7536 50.9178 33.7536 50.2715 34.4892Z" fill="#56E95B"/>
<path fill-rule="evenodd" clip-rule="evenodd" d="M47.4421 61.3796C47.6037 62.2787 47.4421 62.1152 47.3613 63.0142C48.654 62.5238 49.6236 61.4614 51.2395 61.2979C50.5123 59.745 53.8249 44.5433 53.5017 41.1924C52.8554 39.8847 50.1891 35.8799 50.1891 34.5723C50.1891 34.654 50.1084 34.654 50.1084 34.7357C50.1084 34.7357 50.0276 34.8175 50.0276 34.8992L48.654 47.8942C48.4925 50.2644 47.1997 59.745 47.4421 61.3796Z" fill="#1AAE49"/>
<path fill-rule="evenodd" clip-rule="evenodd" d="M53.5822 66.2821C52.9358 67.4263 52.7742 69.633 52.451 71.1859C52.2087 72.657 52.2087 72.4118 51.8047 72.8205C52.3703 73.4743 52.5318 72.9839 53.259 72.4118C55.6828 70.4503 61.5001 66.609 62.8736 65.0562C62.1464 64.8927 62.4696 64.9744 61.7424 64.4841C61.3385 64.2389 61.2577 64.1571 60.8537 63.7485C60.2073 63.1764 59.8034 62.8495 59.0762 62.2773C58.1067 62.5225 57.1371 63.5033 56.3292 64.1571C55.3597 64.8927 54.4709 65.5465 53.5822 66.2821Z" fill="#09763B"/>
<path fill-rule="evenodd" clip-rule="evenodd" d="M51.7258 72.9025C52.1298 72.4939 52.1298 72.739 52.3722 71.2679C52.6145 69.6333 52.8569 67.5083 53.5033 66.3641C52.8569 66.0372 52.6145 64.6478 52.2106 63.8305C51.8066 62.8497 51.4834 62.1142 51.1602 61.2969C49.5443 61.4603 48.5748 62.5228 47.2821 63.0132C47.3629 62.0324 47.5245 62.2776 47.3629 61.3786C47.0397 61.7873 47.1205 61.5421 47.0397 62.3594C46.8781 64.0757 51.0794 71.1044 51.7258 72.9025Z" fill="#0E9042"/>
</g>
<defs>
<clipPath id="clip0_264_2819">
<rect width="74" height="79" fill="white"/>
</clipPath>
</defs>
</svg>
