<svg width="49" height="48" viewBox="0 0 49 48" fill="none" xmlns="http://www.w3.org/2000/svg">
<g clip-path="url(#clip0_363_1343)">
<path d="M24.4996 26.322L2 18.8059L17.3947 16.0547L24.4996 26.322Z" fill="#FFBC41"/>
<path d="M24.5001 2V26.3229L17.3945 16.0556L24.5001 2Z" fill="#F49F00"/>
<path d="M31.6053 16.0556L24.5 26.3221V2L31.6053 16.0556Z" fill="#FFBC41"/>
<path d="M46.9996 18.8066L36.3421 30.111L24.5 26.3227L46.9996 18.8066Z" fill="#FFBC41"/>
<path d="M38.4053 45.9994L24.5 39.2772V26.3223L38.4053 45.9994Z" fill="#FFBC41"/>
<path d="M24.499 26.3223L10.5938 45.9994L12.6569 30.1105L24.499 26.3223Z" fill="#FFBC41"/>
<path d="M24.4996 26.3227L12.6579 30.111L2 18.8066L24.4996 26.3227Z" fill="#F49F00"/>
<path d="M24.4998 26.3223L24.4991 39.2772L10.5938 45.9994L24.4998 26.3223Z" fill="#F49F00"/>
<path d="M46.9996 18.8059L24.5 26.322L31.6053 16.0547L46.9996 18.8059Z" fill="#F49F00"/>
<path d="M38.4053 45.9994L24.5 26.3223L36.3421 30.1105L38.4053 45.9994Z" fill="#F49F00"/>
</g>
<path d="M26.2471 3.10753L31.7639 14.4636C31.8894 14.7518 32.0868 15.0015 32.3364 15.1877C32.586 15.3739 32.8791 15.4902 33.1865 15.5249L45.3652 17.3645C45.7178 17.4107 46.0503 17.5583 46.3238 17.7899C46.5972 18.0216 46.8004 18.3278 46.9095 18.6728C47.0187 19.0178 47.0293 19.3873 46.9402 19.7383C46.851 20.0892 46.6658 20.407 46.4061 20.6546L37.6277 29.5342C37.4037 29.7477 37.2356 30.0148 37.1386 30.3114C37.0416 30.608 37.0189 30.9246 37.0726 31.2324L39.1891 43.7205C39.2504 44.0793 39.2117 44.4485 39.0773 44.786C38.943 45.1235 38.7184 45.4158 38.4292 45.6295C38.14 45.8433 37.7977 45.9701 37.4413 45.9953C37.085 46.0206 36.7288 45.9433 36.4133 45.7724L25.449 39.8644C25.1683 39.7238 24.8597 39.6508 24.5469 39.6508C24.2342 39.6508 23.9255 39.7238 23.6448 39.8644L12.6805 45.7724C12.365 45.9433 12.0089 46.0206 11.6525 45.9953C11.2961 45.9701 10.9539 45.8433 10.6646 45.6295C10.3754 45.4158 10.1509 45.1235 10.0165 44.786C9.88217 44.4485 9.84343 44.0793 9.90471 43.7205L12.0212 31.0908C12.0749 30.783 12.0522 30.4665 11.9552 30.1699C11.8583 29.8733 11.6901 29.6062 11.4661 29.3927L2.58361 20.6546C2.32083 20.4002 2.13602 20.0736 2.05158 19.7143C1.96714 19.355 1.9867 18.9785 2.10787 18.6303C2.22905 18.2821 2.44664 17.9772 2.73431 17.7526C3.02197 17.5279 3.36735 17.3931 3.72862 17.3645L15.9073 15.5249C16.2147 15.4902 16.5078 15.3739 16.7575 15.1877C17.0071 15.0015 17.2044 14.7518 17.3299 14.4636L22.8468 3.10753C22.997 2.77678 23.2369 2.49676 23.5381 2.30052C23.8394 2.10428 24.1894 2 24.5469 2C24.9044 2 25.2544 2.10428 25.5557 2.30052C25.8569 2.49676 26.0968 2.77678 26.2471 3.10753Z" stroke="white" stroke-width="3" stroke-linecap="round" stroke-linejoin="round"/>
<defs>
<clipPath id="clip0_363_1343">
<rect width="45" height="44" fill="white" transform="translate(2 2)"/>
</clipPath>
</defs>
</svg>
