<svg width="24" height="24" viewBox="0 0 24 24" fill="none" xmlns="http://www.w3.org/2000/svg">
<path fill-rule="evenodd" clip-rule="evenodd" d="M13.5425 5.01537C13.0749 4.22033 11.9251 4.22033 11.4575 5.01537L3.59159 18.3873C3.11728 19.1937 3.69866 20.2101 4.63414 20.2101H20.3659C21.3013 20.2101 21.8827 19.1937 21.4084 18.3873L13.5425 5.01537ZM9.37236 3.78884C10.7754 1.40372 14.2246 1.40372 15.6276 3.78884L23.4935 17.1608C24.9164 19.5798 23.1723 22.6292 20.3659 22.6292H4.63414C1.8277 22.6292 0.0835749 19.5798 1.5065 17.1608L9.37236 3.78884Z" fill="#F4AB25"/>
<path fill-rule="evenodd" clip-rule="evenodd" d="M11.291 14.1625V6.90527H13.7101V14.1625H11.291Z" fill="#F4AB25"/>
<path fill-rule="evenodd" clip-rule="evenodd" d="M11.291 18.3959V16.5815H13.7101V18.3959H11.291Z" fill="#F4AB25"/>
</svg>
