<svg width="225" height="203" viewBox="0 0 225 203" fill="none" xmlns="http://www.w3.org/2000/svg">
<g clip-path="url(#clip0_449_6387)">
<path d="M118.163 60.3789C118.172 60.3694 118.182 60.3598 118.191 60.3496C118.198 60.343 118.204 60.336 118.211 60.3291C118.214 60.3257 118.217 60.3219 118.221 60.3184L118.207 60.333L118.183 60.3584C118.177 60.3648 118.17 60.3717 118.163 60.3789ZM118.163 60.3789C118.16 60.3818 118.158 60.3849 118.155 60.3877C118.147 60.396 118.14 60.4043 118.133 60.4121C118.144 60.4005 118.153 60.3891 118.163 60.3789ZM72.9189 40.2988C73.9264 41.5308 74.8874 42.7908 75.8398 44.1045L75.4434 55.6318H83.6064L100.476 81.2627L98.9863 83.0244L101.781 83.2461L106.522 90.4502V83.623L108.978 83.8184L113.139 88.6357C113.498 89.4534 113.865 90.0775 114.117 90.4805C114.673 91.3689 115.229 92.0464 115.591 92.4629C115.638 92.5173 115.686 92.5711 115.733 92.624L104.423 137.862L130.331 110.508L138.258 121.085L139.617 117.149L143.145 119.266V133.395L142.125 133.773L141.315 139.431L137.565 140.576L134.895 144.442C131.887 148.795 124.414 154.747 92.3115 154.747C72.3593 154.747 62.8658 151.724 56.4531 148.061C56.2965 147.965 56.1297 147.867 55.9521 147.769C55.5874 147.553 55.2524 147.345 54.9473 147.14C54.9384 147.134 54.9298 147.127 54.9219 147.122C54.9126 147.116 54.9035 147.11 54.8945 147.104L54.8369 147.062L54.6553 146.941C54.6369 146.929 54.5999 146.904 54.5303 146.854C54.475 146.815 54.4162 146.773 54.335 146.715C54.2538 146.653 54.1886 146.602 54.1484 146.572C54.0832 146.523 54.0547 146.502 54.0449 146.495L53.8623 146.354L53.6982 146.234C53.693 146.23 53.6864 146.225 53.6777 146.218C53.6537 146.199 53.6197 146.172 53.5713 146.133C53.5208 146.092 53.4671 146.049 53.3916 145.987L53.3447 145.948L53.2979 145.911L53.2441 145.865C53.1799 145.81 53.1068 145.747 52.9688 145.626L52.8838 145.552L52.876 145.545C52.8715 145.541 52.8666 145.536 52.8613 145.531C52.8476 145.519 52.8334 145.505 52.8154 145.488L52.7852 145.461L52.7549 145.433L52.4775 145.173C52.4187 145.116 52.3573 145.055 52.291 144.989C52.2505 144.946 52.2063 144.902 52.1602 144.854H52.1621C52.0798 144.77 51.9481 144.626 51.7139 144.353L51.6191 144.242C47.4802 139.307 46.8556 131.177 51.7109 119.348C56.4085 107.903 64.6237 97.4577 69.6768 92.9443L92.4268 72.624L74.0791 70.7031L73.1904 62.2627L66.4219 61.8613L67.1494 58.875C68.9017 51.6785 70.4636 45.8039 72.9189 40.2988ZM51.748 144.396C51.7636 144.414 51.7764 144.428 51.7832 144.437C51.7867 144.441 51.7896 144.445 51.791 144.446C51.7899 144.445 51.7815 144.436 51.7725 144.425C51.7623 144.413 51.7465 144.394 51.7275 144.371C51.7352 144.38 51.742 144.388 51.748 144.396ZM143.63 106.67L142.701 108.229L143.487 105.955L143.63 106.67ZM120.381 33.1787C120.97 39.4972 120.901 45.6753 120.312 51.6621C119.842 52.0858 119.372 52.5447 118.895 53.0488L107.105 65.4971L111.617 68.0889L108.435 71.8516L106.522 72.2344V46.083C106.563 45.413 106.559 44.6731 106.478 43.8867C106.457 43.6885 106.431 43.4853 106.399 43.2773C110.758 39.7914 115.511 36.3424 120.381 33.1787ZM105.767 49.8213C105.765 49.8264 105.763 49.8318 105.761 49.8369C105.771 49.8078 105.781 49.7764 105.793 49.7432C105.78 49.7794 105.772 49.8059 105.767 49.8213ZM105.943 49.2861C105.923 49.3546 105.903 49.4172 105.885 49.4736C105.901 49.4247 105.92 49.3615 105.943 49.2861Z" fill="white" stroke="white" stroke-width="27"/>
<path fill-rule="evenodd" clip-rule="evenodd" d="M143.753 118.441C140.363 121.96 119.712 131.527 118.7 133.83C118.151 135.025 117.592 136.22 117.043 137.597C116.494 138.792 115.3 140.32 115.655 141.697C117.57 142.343 119.303 142.956 120.939 143.462C122.671 144.075 124.77 144.388 126.126 145.496L154.439 135.014C156.183 133.4 155.752 125.049 158.141 122.542C154.31 122.359 151.674 121.196 147.208 119.679C145.927 119.431 144.926 119.335 143.742 118.452L143.753 118.441Z" fill="#35D251"/>
<path fill-rule="evenodd" clip-rule="evenodd" d="M154.45 135.197L126.137 145.679C126.406 147.121 126.309 147.939 126.481 149.467C126.567 150.317 126.567 150.694 126.653 151.361C126.825 152.696 126.556 152.179 127.288 153.438C133.315 150.888 140.353 148.821 146.562 146.863C153.138 144.797 159.799 142.461 166.191 140.546L154.45 135.197Z" fill="#0D8A42"/>
<path fill-rule="evenodd" clip-rule="evenodd" d="M158.151 122.725C155.773 125.233 156.279 133.508 154.449 135.198L166.104 140.428C166.567 139.869 173.045 116.602 173.411 114.073C172.862 113.406 173.325 113.772 172.776 114.041C172.496 115.009 159.981 121.036 158.151 122.725Z" fill="#27B348"/>
<path fill-rule="evenodd" clip-rule="evenodd" d="M147.541 107.939C146.077 109.145 144.592 116.473 143.85 118.561C145.033 119.444 146.034 119.54 147.304 119.971C151.77 121.488 154.321 122.543 158.238 122.833C160.067 121.144 172.68 115.225 172.96 114.074C171.776 113.385 162.478 111.394 160.207 110.856L150.543 108.8C149.273 108.37 149.091 108.144 147.541 107.939Z" fill="#56E95B"/>
<path fill-rule="evenodd" clip-rule="evenodd" d="M114.255 128.795C113.427 129.839 113.427 129.473 112.34 130.184C114.341 131.497 116.623 131.852 118.614 133.907C119.539 131.486 140.277 122.037 143.667 118.518C144.409 116.43 145.894 109.102 147.358 107.896C147.272 107.972 147.175 107.864 147.089 107.94C147.089 107.94 146.906 107.907 146.82 107.983L130.731 118.055C127.901 120.014 115.827 126.966 114.277 128.795H114.255Z" fill="#1AAE49"/>
<path fill-rule="evenodd" clip-rule="evenodd" d="M135.877 93.787C135.446 98.662 125.384 119.066 126.041 121.498C126.363 122.779 126.675 124.049 127.117 125.469C127.44 126.75 127.472 128.687 128.613 129.526C130.507 128.827 132.239 128.224 133.832 127.589C135.565 126.976 137.394 125.91 139.148 125.91L155.172 100.115C155.516 97.7688 149.824 90.7845 150.093 87.3301C146.993 89.59 143.754 90.946 139.331 92.571C138.18 93.1844 137.34 93.7332 135.866 93.787H135.877Z" fill="#8651DD"/>
<path fill-rule="evenodd" clip-rule="evenodd" d="M154.719 100.114L139.266 126.05C140.385 127.007 140.826 127.707 141.913 128.772C142.516 129.386 142.752 129.665 143.237 130.139C144.216 131.064 143.678 130.838 145.034 131.355C148.122 125.587 152.298 119.56 155.903 114.137C159.723 108.401 163.447 102.396 167.213 96.8965L154.719 100.114Z" fill="#7D22C9"/>
<path fill-rule="evenodd" clip-rule="evenodd" d="M149.758 88.0841C149.478 91.5385 155.074 97.6511 154.709 100.116L167.063 96.8763C167.063 96.1553 157.496 73.9757 156.204 71.7695L155.688 72.1462C156.075 73.0717 150.124 85.6197 149.758 88.0841Z" fill="#7D22C9"/>
<path fill-rule="evenodd" clip-rule="evenodd" d="M131.872 83.5197C131.485 85.3707 134.455 95.2606 136.016 93.8078C137.49 93.754 138.329 93.1944 139.599 92.7316C144.022 91.1066 146.67 90.3318 149.909 88.0934C150.275 85.629 156.376 73.1133 155.871 72.0371C154.515 72.2416 146.035 76.5247 143.925 77.547L135.112 82.0131C133.853 82.4758 133.218 82.7126 131.883 83.5197H131.872Z" fill="#BF8BFD"/>
<path fill-rule="evenodd" clip-rule="evenodd" d="M119.411 120.368C119.422 121.702 119.196 121.411 118.787 122.66C121.176 122.423 123.167 121.271 126.008 121.616C125.201 119.151 135.414 98.7798 135.844 93.9048C135.112 91.8171 131.669 85.1772 132.045 83.3262C132.024 83.4445 131.884 83.4123 131.862 83.5306C131.862 83.5306 131.701 83.6167 131.679 83.7351L125.481 101.675C124.502 104.978 119.476 117.968 119.411 120.368Z" fill="#915AE3"/>
<mask id="mask0_449_6387" style="mask-type:luminance" maskUnits="userSpaceOnUse" x="0" y="0" width="225" height="203">
<path d="M25.0422 0L224.96 15.4213L183.829 199.573L0 202.748L25.0422 0Z" fill="white"/>
</mask>
<g mask="url(#mask0_449_6387)">
<path d="M121.639 21.104C124.544 19.4897 128.235 21.1578 128.838 24.3002C130.969 35.3738 131.55 45.974 130.237 56.0145C130.129 56.7894 129.839 57.5319 129.355 58.1561C122.639 66.9375 112.9 74.4707 101.913 81.498C98.9639 83.3812 94.9498 81.7562 94.3902 78.4202C92.6253 67.8092 91.9581 56.1975 92.1626 43.8002C92.1733 42.5626 92.7222 41.368 93.68 40.5179C101.859 33.2215 111.297 26.8184 121.66 21.0932H121.649L121.639 21.104Z" fill="#915AE3"/>
<path d="M120.852 55.3033C121.261 54.8944 121.864 54.7222 122.445 54.8729C124.64 55.4217 127.094 56.4548 129.73 57.5633C129.623 57.7677 129.504 57.9615 129.364 58.1336C122.649 66.9151 112.921 74.4482 101.922 81.4755C100.696 82.2611 99.2643 82.4333 97.9944 82.1212C106.722 71.3058 115.03 61.0177 120.863 55.3033H120.852ZM92.7427 41.6684C95.3578 42.7876 97.8222 43.8853 99.3826 44.9615C99.7808 45.2413 100.039 45.6717 100.039 46.156C100.114 55.6908 98.3495 68.1311 96.5739 81.5508C95.4547 80.8944 94.6153 79.7967 94.3785 78.3977C92.6136 67.7868 91.9464 56.175 92.1508 43.7777H92.1401C92.1509 43.0352 92.3661 42.3141 92.7427 41.6684ZM122.918 20.608C124.726 20.1883 126.609 20.8125 127.772 22.1362C126.147 34.1353 124.328 44.9938 122.047 52.882C121.799 53.7429 120.82 54.2487 119.916 53.9797C113.48 52.0318 107.389 49.5351 101.653 46.5111C100.76 46.0376 100.513 44.9077 101.137 44.1436C106.98 36.9549 114.535 28.9698 122.918 20.608Z" fill="#BF8BFD"/>
<path d="M67.4868 30.1113C68.9073 27.2057 72.9429 26.5815 75.332 28.8414C83.726 36.7835 90.5811 45.1882 95.5314 54.1419C95.9081 54.8414 96.091 55.6055 96.0803 56.3803C95.8328 67.2387 92.3783 78.689 87.5679 90.4084C86.2765 93.5508 81.9934 94.3794 79.529 91.9473C71.6946 84.199 64.1722 75.0086 56.8866 64.7205C56.1548 63.6874 55.8858 62.4068 56.1548 61.1907C58.4901 50.7843 62.3965 40.4209 67.476 30.1005L67.4868 30.1113Z" fill="#27B348"/>
<path d="M63.5691 61.7614C64.0641 61.7722 64.5268 61.9874 64.8282 62.3856C70.6179 70.1769 76.6444 81.3582 83.2628 93.3359C81.9391 93.4004 80.5939 92.9592 79.5608 91.9369C71.7263 84.1885 64.204 74.9981 56.9184 64.7101C56.4664 64.0967 56.2297 63.3864 56.1328 62.6438C58.9631 62.1488 61.632 61.7183 63.5691 61.7506V61.7614ZM96.0475 55.7026C96.069 55.9179 96.1013 56.1438 96.0905 56.3698C95.843 67.2175 92.3886 78.6786 87.5781 90.3979C87.0401 91.7109 85.9747 92.6148 84.7478 93.0561C85.4151 79.4534 86.0715 66.4965 87.4167 58.6513C87.5028 58.1025 87.901 57.6182 88.4498 57.4352C90.5806 56.6927 93.2172 56.2084 96.0475 55.7026ZM68.2396 29.0354C69.4664 27.7118 71.3927 27.206 73.1469 27.658C79.0012 38.3872 84.0483 48.2879 86.9109 56.0147C87.2338 56.8649 86.728 57.7904 85.824 58.0594C79.3778 59.9427 72.8778 61.1803 66.3348 61.8044C65.3878 61.8905 64.5484 61.2018 64.4946 60.3193V60.1472C64.9681 51.0859 66.3778 40.4319 68.2396 29.0247V29.0354Z" fill="#56E95B"/>
<path d="M53.668 60.1478C54.5289 59.1901 55.9925 58.9856 57.2409 59.2869C58.5 59.5775 59.6084 60.277 60.7276 60.9334C69.3369 65.9053 79.485 67.8209 89.4395 67.7348C99.4047 67.6487 109.241 65.647 118.894 63.2257C120.164 62.9028 121.444 62.58 122.757 62.6445C124.059 62.7091 125.415 63.2257 126.158 64.3018C128.181 67.1859 124.953 68.5096 123.36 70.2207C121.272 72.4591 119.852 75.6768 118.141 78.2273H118.119C118.119 78.2273 199.606 163.62 92.6787 163.599C-11.5579 163.577 68.5082 79.1313 68.6696 78.9591C67.6796 78.9591 66.5389 77.8076 64.591 75.0742C61.9975 73.2016 58.5322 69.2952 56.1217 67.1859C55.0885 66.2712 54.0016 65.3134 53.3882 64.0651C52.7748 62.8167 52.7318 61.1917 53.668 60.1586V60.1478Z" fill="#A78753"/>
<g opacity="0.3">
<path d="M118.151 78.2047C118.226 78.2801 199.595 163.619 92.7 163.587C52.1181 163.598 39.4732 150.781 39.1719 135.144C44.1868 137.512 48.7389 141.601 53.3018 144.883C62.998 151.857 75.3415 155.893 87.4268 154.547C99.512 153.202 111.048 145.981 115.773 135.338C119.927 125.975 118.571 115.052 114.352 105.711C110.134 96.3703 103.332 88.3206 96.4235 80.5615C102.03 81.2718 107.766 80.8521 113.233 79.4638C114.89 79.0334 116.634 78.4953 118.399 77.8496C118.323 77.968 118.248 78.0864 118.173 78.2047H118.151Z" fill="#110505"/>
</g>
<path d="M119.991 72.6513C126.2 71.403 128.826 80.432 122.617 81.6695C103.558 85.5114 84.4669 85.9742 65.2144 83.2084C58.9619 82.3045 61.6416 73.297 67.8402 74.1902C85.2525 76.6977 102.762 76.1273 119.991 72.6513Z" fill="#4A4444"/>
</g>
</g>
<defs>
<clipPath id="clip0_449_6387">
<rect width="224.96" height="202.748" fill="white"/>
</clipPath>
</defs>
</svg>
