<svg width="166" height="162" viewBox="0 0 166 162" fill="none" xmlns="http://www.w3.org/2000/svg">
<g clip-path="url(#clip0_449_6251)">
<path d="M143.468 135.496C143.468 135.496 149.226 138.046 144.15 146.845C139.074 155.644 133.574 152.636 133.574 152.636L80.9473 122.248L90.8308 105.119L143.457 135.508L143.468 135.496Z" fill="white" stroke="white" stroke-width="9" stroke-miterlimit="10"/>
<path d="M80.4765 99.752L68.0215 121.33L82.9697 129.961L95.4247 108.383L80.4765 99.752Z" fill="white" stroke="white" stroke-width="6" stroke-miterlimit="10"/>
<path d="M64.0184 52.1902C84.0761 63.7732 90.9521 89.4099 79.3691 109.468C67.7862 129.525 42.1383 136.379 22.0917 124.807C2.04522 113.235 -4.84193 87.5875 6.741 67.541C18.3128 47.4944 43.9607 40.6073 64.0184 52.1902Z" fill="white" stroke="white" stroke-width="4" stroke-miterlimit="10"/>
<path d="M114.097 33.0293L111.427 51.1318L125.055 46.1387L135 77.7676L105.131 112L71.2646 95.2949L64 51.7188L64.9238 28.498L91.3232 6L114.097 33.0293Z" fill="white"/>
<path d="M114.097 33.0293L111.427 51.1318L125.055 46.1387L135 77.7676L105.131 112L71.2646 95.2949L64 51.7188L64.9238 28.498L91.3232 6L114.097 33.0293Z" stroke="white"/>
<mask id="mask0_449_6251" style="mask-type:luminance" maskUnits="userSpaceOnUse" x="47" y="0" width="119" height="136">
<path d="M59.1663 0.00111751L47.1172 125.596L153.703 135.821L165.752 10.2266L59.1663 0.00111751Z" fill="white"/>
</mask>
<g mask="url(#mask0_449_6251)">
<path fill-rule="evenodd" clip-rule="evenodd" d="M78.2282 40.0822C77.8816 49.9321 77.2219 59.8827 76.73 69.7215C76.2604 79.3143 75.2206 90.0923 75.6679 99.4056L81.7053 108.015L82.8233 107.254C83.1476 107.042 83.1588 106.919 83.4718 106.695C90.3478 100.311 89.8782 102.122 90.9515 95.6713C93.8137 78.2745 96.6088 58.5187 99.9853 41.9158C98.0511 40.2499 96.6312 38.0138 95.1442 36.3814C93.646 34.8833 93.9032 35.2746 92.7292 33.5528C92.0807 32.5018 90.9627 31.7751 90.1577 30.8359C89.2409 32.6024 89.5092 31.395 87.2284 33.3963L78.2282 40.071V40.0822Z" fill="#915AE3"/>
<path fill-rule="evenodd" clip-rule="evenodd" d="M99.9746 42.0386C96.5869 58.6415 93.7918 78.5203 90.9408 95.7941C89.8786 102.245 90.2029 100.423 83.4611 106.818C83.1368 107.03 83.1257 107.153 82.8126 107.377L81.6946 108.137L75.6571 99.5284C74.0136 99.4948 73.0409 100.389 71.6322 100.993C70.38 101.619 68.9377 102.592 67.8867 102.737C68.3563 104.023 73.3204 109.926 74.6509 111.547C76.9205 114.365 78.8547 117.518 81.1691 119.832C83.2375 118.546 90.147 111.793 92.7632 109.457C93.4117 108.898 94.0601 108.35 94.5632 107.78C95.2117 107.221 96.0167 106.684 96.3633 106.102C97.5596 104.493 110.384 39.3553 111.121 34.7266C107.857 36.1465 102.557 41.569 99.9746 42.0609V42.0386Z" fill="#4F2BC1"/>
<path fill-rule="evenodd" clip-rule="evenodd" d="M99.1351 70.5151C97.9276 75.4457 84.3545 94.799 84.6452 97.4041C84.7682 98.7681 84.9024 100.121 85.1148 101.653C85.2378 103.017 84.9695 105.018 86.0092 106.058C88.0664 105.644 89.9448 105.297 91.6777 104.895C93.556 104.548 95.6021 103.732 97.4021 104.012L117.382 79.8284C118.097 77.4693 113.368 70.1909 114.195 66.6914C110.662 68.525 107.677 68.8492 102.881 69.8219C101.606 70.2691 100.656 70.694 99.1351 70.5263V70.5151Z" fill="#35D251"/>
<path fill-rule="evenodd" clip-rule="evenodd" d="M67.886 102.737C68.9593 102.468 70.5358 101.507 71.6314 100.993C72.8836 100.367 74.0129 99.4945 75.6564 99.528C75.2092 90.2147 76.249 79.3138 76.7185 69.844C77.2217 59.8822 77.8701 50.0546 78.2167 40.2046C77.5347 39.5226 76.7074 38.8294 75.9024 37.8791C74.8179 36.7834 74.6725 36.6492 73.4538 35.4194C71.5308 33.6305 71.1171 31.7298 68.5568 30.5C67.3605 41.3897 67.763 55.8796 67.8748 67.1383C67.886 73.1981 67.9195 79.1349 67.9307 85.1835C68.0649 90.0135 67.2822 98.2199 67.886 102.726V102.737Z" fill="#6239D2"/>
<path fill-rule="evenodd" clip-rule="evenodd" d="M68.6914 30.5117C71.2517 31.8645 71.6766 33.6422 73.5884 35.431C74.8183 36.6609 74.9636 36.6721 76.037 37.8907C76.8531 38.7069 77.6693 39.5343 78.3513 40.2163L87.318 33.9105C89.61 31.7862 89.3305 33.1167 90.2473 31.3502L91.8349 11.7285C89.6771 12.3882 79.3799 21.7797 75.9811 24.5413C75.3438 24.9773 75.0195 25.1898 74.3822 25.6258C72.4257 27.2917 70.6368 28.8458 68.6914 30.5117Z" fill="#BF8BFD"/>
<path fill-rule="evenodd" clip-rule="evenodd" d="M117.483 79.997L97.5039 104.18C98.499 105.343 98.8344 106.126 99.7959 107.4C100.321 108.116 100.511 108.451 100.936 109.01C101.786 110.117 101.283 109.793 102.58 110.542C106.672 105.108 111.904 99.5851 116.466 94.5875C121.296 89.2991 126.07 83.7313 130.81 78.6777L117.472 79.997H117.483Z" fill="#0D8A42"/>
<path fill-rule="evenodd" clip-rule="evenodd" d="M90.1342 31.0926C91.0957 31.9311 92.0684 32.7584 92.7057 33.8094C93.8797 35.5312 93.6337 35.0057 95.1207 36.6381C96.6077 38.2592 98.0388 40.5065 99.9618 42.1724C102.399 41.6693 107.844 36.2579 111.265 34.8492C110.773 33.8094 107.643 30.5447 106.592 29.0913C105.138 27.1011 103.372 25.3235 101.773 23.311L91.6771 11.8398L90.123 31.0926H90.1342Z" fill="#8651DD"/>
<path fill-rule="evenodd" clip-rule="evenodd" d="M114.308 66.8485C113.48 70.348 118.254 77.5147 117.494 79.9855L130.698 78.6103C130.821 77.8724 124.504 53.5773 123.52 51.1065C122.682 50.7934 123.286 50.8829 122.928 51.4083C123.185 52.4258 115.079 64.3665 114.308 66.8373V66.8485Z" fill="#27B348"/>
<path fill-rule="evenodd" clip-rule="evenodd" d="M97.0565 59.1001C96.3633 60.9449 98.8566 68.3016 99.2814 70.5713C100.802 70.7502 101.752 70.3141 103.128 70.0346C107.924 69.0731 110.764 68.6818 114.442 66.9041C115.202 64.4332 123.454 52.5372 123.107 51.3633C121.687 51.3633 112.295 54.4155 109.97 55.1199L100.221 58.3063C98.8454 58.5858 98.5659 58.474 97.0677 59.1001H97.0565Z" fill="#56E95B"/>
<path fill-rule="evenodd" clip-rule="evenodd" d="M78.0263 95.1908C77.8362 96.566 77.635 96.2306 77.0312 97.4381C79.5133 97.5834 81.7494 96.7002 84.6116 97.5163C84.1755 94.8554 97.8939 75.558 99.1014 70.6274C98.6766 68.3689 96.1945 61.001 96.8765 59.1562C96.8318 59.2681 96.6976 59.2233 96.6529 59.3351C96.6529 59.3351 96.474 59.4022 96.4293 59.514L87.2166 76.9555C85.6849 80.1978 78.4735 92.7311 78.0263 95.1908Z" fill="#1AAE49"/>
<path fill-rule="evenodd" clip-rule="evenodd" d="M86.0207 106.058C84.3101 107.254 82.8678 110.262 81.4926 112.241C80.2963 114.164 80.4305 113.817 79.5137 114.13C80.1398 115.416 80.6764 114.824 82.2305 114.488C87.4406 113.281 99.4819 111.604 102.668 110.307C101.506 109.614 102.02 109.927 101.025 108.775C100.455 108.171 100.365 108.004 99.8844 107.165C99.0683 105.946 98.554 105.22 97.5924 103.945C95.7924 103.666 93.601 104.426 91.8681 104.828C89.8109 105.242 87.9325 105.589 86.0207 106.058Z" fill="#09763B"/>
<path fill-rule="evenodd" clip-rule="evenodd" d="M79.3344 114.198C80.24 113.885 80.117 114.231 81.3133 112.308C82.5879 110.162 84.1308 107.322 85.8414 106.126C84.9022 105.254 85.2153 103.129 84.947 101.721C84.7681 100.077 84.6004 98.836 84.4774 97.472C81.604 96.667 79.3791 97.5391 76.897 97.3938C77.5567 96.0633 77.702 96.5105 77.8921 95.1465C77.1207 95.5154 77.389 95.2248 76.8188 96.3204C75.6337 98.6348 79.1667 111.246 79.3344 114.198Z" fill="#0E9042"/>
</g>
<path d="M144.25 135.989C144.25 135.989 150.007 138.538 144.932 147.337C139.856 156.136 134.355 153.128 134.355 153.128L81.7285 122.74L91.612 105.611L144.238 136L144.25 135.989Z" fill="#27B348"/>
<path d="M79.8515 95.8393L74.4961 105.119L67.3965 117.406L82.3447 126.038L94.7997 104.459L79.8515 95.8281V95.8393Z" fill="#6239D2"/>
<path d="M62.7886 54.3151C81.6724 65.2161 88.1459 89.3658 77.2449 108.25C66.344 127.133 42.1943 133.596 23.3105 122.695C4.43792 111.794 -2.04674 87.644 8.85419 68.7714C19.7551 49.8989 43.9049 43.4142 62.7886 54.3151Z" fill="#7D22C9"/>
<path d="M56.5835 65.0697C69.5304 72.5382 73.9579 89.0853 66.4894 102.032C59.0097 114.979 42.4738 119.407 29.5268 111.938C16.5799 104.47 12.1524 87.9113 19.621 74.9756C27.0895 62.0398 43.6477 57.6012 56.5835 65.0697Z" fill="#BF8BFD"/>
<path d="M88.4052 116.054L144.721 147.706L145.459 146.554C146.152 144.866 146.622 143.983 146.924 142.182L146.979 141.791C147.136 140.908 147.17 140.617 146.924 139.756L146.789 139.231C146.398 137.844 145.325 136.592 144.073 135.877L135.374 131.013L120.214 122.192L93.3805 106.908L88.3828 116.065L88.4052 116.054Z" fill="#0D8A42"/>
<path d="M88.4036 116.054L76.9102 108.82L79.1462 104.504L80.745 100.278L81.7289 96.9238L94.81 104.471L88.4036 116.054Z" fill="#4F2BC1"/>
</g>
<defs>
<clipPath id="clip0_449_6251">
<rect width="166" height="162" fill="white"/>
</clipPath>
</defs>
</svg>
