<svg width="63" height="64" viewBox="0 0 63 64" fill="none" xmlns="http://www.w3.org/2000/svg">
<g clip-path="url(#clip0_449_5993)">
<path d="M31.5 2C32.3534 2 33.2003 2.30749 33.8584 2.91504L33.9873 3.04102L33.9912 3.04395C36.0435 5.13555 39.1329 5.84141 41.8896 4.83887C42.2842 4.69599 42.6824 4.62988 43.0811 4.62988C44.447 4.63004 45.7225 5.43805 46.2773 6.72266L46.3789 6.98633C46.8462 8.37693 47.7022 9.56412 48.8086 10.4355V10.4346C49.912 11.309 51.2614 11.8691 52.7109 12.0176H52.7168C54.5216 12.1974 55.8446 13.7063 55.8447 15.4375C55.8447 15.6014 55.8368 15.7352 55.8213 15.8477L55.8184 15.8701L55.8164 15.8926C55.7835 16.1781 55.7608 16.4807 55.7607 16.7988C55.7607 19.3681 57.0948 21.7944 59.3408 23.1572V23.1582C60.4147 23.8095 61.001 24.9377 61.001 26.0967C61.0009 26.732 60.8235 27.3745 60.4463 27.9561C59.64 29.1907 59.249 30.6049 59.249 31.998C59.249 32.775 59.3705 33.553 59.6152 34.3027C59.7478 34.7149 59.9193 35.1145 60.125 35.498V35.5488L60.4482 36.0459C60.8247 36.6258 61.0019 37.2679 61.002 37.9043C61.002 38.9929 60.4851 40.0563 59.5371 40.7207L59.3418 40.8486C57.0977 42.2103 55.7619 44.6299 55.7617 47.2012C55.7617 47.5194 55.7835 47.8227 55.8164 48.1084L55.8223 48.1533C55.8378 48.2658 55.8457 48.3996 55.8457 48.5635C55.8455 50.2952 54.5216 51.8033 52.7178 51.9824C51.2541 52.1258 49.9028 52.6967 48.8037 53.5703C47.7029 54.4444 46.8474 55.6289 46.3799 57.0205C45.8948 58.4553 44.5456 59.3711 43.0869 59.3711C42.6863 59.3711 42.2833 59.3043 41.8906 59.1621L41.8877 59.1611L41.5781 59.0566C41.2735 58.9612 40.9593 58.8843 40.6367 58.8291H40.6377C40.6339 58.8284 40.6297 58.8278 40.626 58.8271C40.6208 58.8263 40.6155 58.8251 40.6104 58.8242H40.6094C40.1795 58.7481 39.754 58.7139 39.3369 58.7139C37.4863 58.7139 35.6666 59.4013 34.2656 60.6914L33.9912 60.957L33.9883 60.96C33.3138 61.6507 32.4119 62.001 31.501 62.001C30.5898 62.001 29.6879 61.6511 29.0146 60.9609L29.0117 60.957L28.7373 60.6914C27.336 59.401 25.5154 58.7139 23.665 58.7139C22.8037 58.7139 21.9403 58.8632 21.1152 59.1602L21.1113 59.1621C20.7186 59.3043 20.3157 59.3711 19.915 59.3711C18.5479 59.3711 17.2766 58.5669 16.7227 57.2832L16.6221 57.0205C16.1838 55.7161 15.4048 54.5937 14.4023 53.7383L14.1982 53.5703C13.0987 52.6963 11.746 52.1257 10.2832 51.9824H10.2842C8.47937 51.8026 7.15643 50.2946 7.15625 48.5635C7.15625 48.3996 7.16415 48.2658 7.17969 48.1533L7.18262 48.1309L7.18457 48.1084C7.21745 47.8227 7.24023 47.5195 7.24023 47.2012C7.24007 44.6299 5.90427 42.2103 3.66016 40.8486C2.58815 40.1981 2 39.0649 2 37.9043C2.00003 37.269 2.17649 36.6255 2.55371 36.0439C3.35684 34.8089 3.75289 33.4074 3.75293 31.998C3.75293 30.5914 3.35932 29.1889 2.55273 27.9551H2.55371C2.17724 27.3752 2.00005 26.7331 2 26.0967C2 24.9377 2.58627 23.8095 3.66016 23.1582V23.1572C5.90617 21.7944 7.24023 19.3681 7.24023 16.7988C7.24022 16.4807 7.21743 16.1781 7.18457 15.8926L7.18262 15.8701L7.17969 15.8477L7.16211 15.6621C7.15818 15.5942 7.15625 15.5195 7.15625 15.4375C7.15638 13.7059 8.47951 12.1969 10.2832 12.0176V12.0186L10.29 12.0176C11.7432 11.8688 13.0941 11.3074 14.1982 10.4307L14.1973 10.4297C15.3014 9.55735 16.1566 8.37144 16.623 6.97949C17.11 5.54684 18.4642 4.63005 19.9189 4.62988C20.3177 4.62988 20.7158 4.69599 21.1104 4.83887V4.83789C21.9512 5.14637 22.817 5.2871 23.6641 5.28711C25.6379 5.28711 27.5763 4.50533 29.0098 3.04492L29.0137 3.04102C29.6882 2.35011 30.5901 2 31.5 2Z" fill="#7D22C9" stroke="white" stroke-width="4"/>
<g style="mix-blend-mode:overlay">
<path d="M63.0016 37.904C63.0016 39.735 62.0733 41.5302 60.3788 42.5578C58.7371 43.554 57.7613 45.3228 57.7613 47.2012C57.7613 47.4254 57.7771 47.6497 57.8035 47.8793C57.8353 48.1088 57.8458 48.3383 57.8458 48.5626C57.8458 51.3171 55.7479 53.6913 52.9155 53.9725C51.8454 54.0768 50.8546 54.4938 50.047 55.136C49.2394 55.7773 48.6149 56.6438 48.2741 57.6609C47.5035 59.9405 45.3686 61.3703 43.0866 61.3703C42.4622 61.3703 41.8281 61.2661 41.2089 61.0418C40.9051 60.9323 40.5951 60.8491 40.2806 60.7965L14.5247 35.1802C13.1975 33.8546 13.1975 31.7056 14.5247 30.3853C14.6084 30.3021 14.693 30.2232 14.7819 30.1505C16.1197 29.065 18.097 29.1386 19.3502 30.3853L25.8641 36.8649L42.8779 19.9404C42.9616 19.8625 43.0461 19.7836 43.1351 19.7109C44.4729 18.6201 46.4501 18.699 47.7034 19.9404L61.5184 33.6829C61.6602 34.1262 61.8646 34.5547 62.127 34.9559C62.7198 35.8688 63.0034 36.8912 63.0034 37.904H63.0016Z" fill="#545454"/>
</g>
<path d="M47.7003 19.9421C46.3687 18.6183 44.2109 18.6183 42.8793 19.9421L25.8645 36.8674L19.3472 30.3843C18.0155 29.0605 15.8569 29.0605 14.5261 30.3843C13.1944 31.709 13.1944 33.8554 14.5261 35.1801L23.454 44.0611C24.1198 44.7234 24.9917 45.0546 25.8645 45.0546C26.7373 45.0546 27.6093 44.7234 28.2751 44.0611L47.7003 24.7378C49.032 23.4132 49.032 21.2667 47.7003 19.9421Z" fill="white"/>
</g>
<defs>
<clipPath id="clip0_449_5993">
<rect width="63" height="64" fill="white"/>
</clipPath>
</defs>
</svg>
