<svg width="66" height="66" viewBox="0 0 66 66" fill="none" xmlns="http://www.w3.org/2000/svg">
<circle cx="33" cy="33" r="31" fill="#CA0000" stroke="white" stroke-width="4"/>
<path d="M41.7322 20.4846C42.7085 19.5083 44.2915 19.5083 45.2678 20.4846C46.2441 21.4609 46.2441 23.0438 45.2678 24.0201L24.0546 45.2333C23.0783 46.2096 21.4953 46.2096 20.519 45.2333C19.5427 44.257 19.5427 42.6741 20.519 41.6978L41.7322 20.4846Z" fill="white"/>
<path d="M20.5529 24.0197C19.5766 23.0434 19.5766 21.4605 20.5529 20.4842C21.5292 19.5079 23.1121 19.5079 24.0885 20.4842L45.3017 41.6974C46.278 42.6737 46.278 44.2566 45.3017 45.2329C44.3253 46.2092 42.7424 46.2092 41.7661 45.2329L20.5529 24.0197Z" fill="white"/>
</svg>
