<svg width="63" height="62" viewBox="0 0 63 62" fill="none" xmlns="http://www.w3.org/2000/svg">
<g clip-path="url(#clip0_72_749)">
<path d="M31.5004 34.0615L1.8418 24.154L22.1349 20.5273L31.5004 34.0615Z" fill="#FFBC41"/>
<path d="M31.5013 2V34.062L22.1348 20.5278L31.5013 2Z" fill="#F49F00"/>
<path d="M40.868 20.5278L31.502 34.0609V2L40.868 20.5278Z" fill="#FFBC41"/>
<path d="M61.1605 24.1543L47.112 39.0555L31.502 34.0619L61.1605 24.1543Z" fill="#FFBC41"/>
<path d="M49.8317 60.0005L31.502 51.1394V34.0625L49.8317 60.0005Z" fill="#FFBC41"/>
<path d="M31.4996 34.0625L13.1699 60.0005L15.8895 39.0561L31.4996 34.0625Z" fill="#FFBC41"/>
<path d="M31.5004 34.062L15.8908 39.0556L1.8418 24.1544L31.5004 34.062Z" fill="#F49F00"/>
<path d="M31.5007 34.0625L31.4996 51.1394L13.1699 60.0005L31.5007 34.0625Z" fill="#F49F00"/>
<path d="M61.1605 24.154L31.502 34.0615L40.868 20.5273L61.1605 24.154Z" fill="#F49F00"/>
<path d="M49.8317 60.0005L31.502 34.0625L47.112 39.0561L49.8317 60.0005Z" fill="#F49F00"/>
</g>
<path d="M33.8039 3.45993L41.0761 18.4293C41.2415 18.8092 41.5016 19.1383 41.8307 19.3838C42.1597 19.6293 42.5461 19.7825 42.9513 19.8283L59.005 22.2532C59.4699 22.3141 59.9081 22.5086 60.2686 22.814C60.629 23.1194 60.8968 23.523 61.0407 23.9778C61.1846 24.4326 61.1986 24.9197 61.0811 25.3822C60.9636 25.8448 60.7194 26.2638 60.3772 26.5901L48.8056 38.2951C48.5103 38.5765 48.2887 38.9286 48.1609 39.3196C48.0331 39.7105 48.0031 40.1278 48.0738 40.5336L50.8638 56.9952C50.9446 57.4682 50.8935 57.9548 50.7165 58.3997C50.5394 58.8446 50.2434 59.2299 49.8621 59.5117C49.4809 59.7935 49.0297 59.9606 48.5599 59.9938C48.0901 60.0271 47.6207 59.9253 47.2048 59.6999L32.7519 51.9121C32.3818 51.7269 31.975 51.6306 31.5627 51.6306C31.1505 51.6306 30.7437 51.7269 30.3736 51.9121L15.9206 59.6999C15.5048 59.9253 15.0353 60.0271 14.5655 59.9938C14.0958 59.9606 13.6446 59.7935 13.2634 59.5117C12.8821 59.2299 12.5861 58.8446 12.409 58.3997C12.2319 57.9548 12.1809 57.4682 12.2616 56.9952L15.0516 40.347C15.1223 39.9413 15.0924 39.524 14.9646 39.133C14.8368 38.7421 14.6151 38.3899 14.3198 38.1086L2.61111 26.5901C2.2647 26.2548 2.0211 25.8243 1.90979 25.3507C1.79849 24.8771 1.82426 24.3807 1.98399 23.9218C2.14372 23.4628 2.43055 23.0609 2.80975 22.7647C3.18894 22.4686 3.64422 22.2909 4.12043 22.2532L20.1742 19.8283C20.5794 19.7825 20.9658 19.6293 21.2948 19.3838C21.6238 19.1383 21.884 18.8092 22.0494 18.4293L29.3216 3.45993C29.5197 3.02394 29.8359 2.65483 30.233 2.39614C30.6301 2.13745 31.0915 2 31.5627 2C32.034 2 32.4954 2.13745 32.8925 2.39614C33.2896 2.65483 33.6058 3.02394 33.8039 3.45993Z" stroke="white" stroke-width="3" stroke-linecap="round" stroke-linejoin="round"/>
<defs>
<clipPath id="clip0_72_749">
<rect width="59.3182" height="58" fill="white" transform="translate(1.8418 2)"/>
</clipPath>
</defs>
</svg>
